<svg xmlns="http://www.w3.org/2000/svg" data-name="Layer 1" viewBox="0 0 64 64"><path d="M32,60.61A26.56,26.56,0,1,1,40.36,8.84a1.49,1.49,0,0,1,.88.79,1.45,1.45,0,0,1,0,1.19,7.26,7.26,0,0,0-.5,2.66,7.08,7.08,0,0,0,11.32,5.68,1.51,1.51,0,0,1,2.15.38A26.56,26.56,0,0,1,32,60.61ZM32,10.5A23.55,23.55,0,0,0,17.45,52.57,23.86,23.86,0,0,0,21,54.87a23.49,23.49,0,0,0,22,0,23.86,23.86,0,0,0,3.54-2.3,23.54,23.54,0,0,0,6-30.13,10.09,10.09,0,0,1-14.73-9A10.18,10.18,0,0,1,38,11.27,23.75,23.75,0,0,0,32,10.5Z"/><path d="M32 41.66a6.95 6.95 0 1 1 7-6.95A7 7 0 0 1 32 41.66zm0-10.9a3.95 3.95 0 1 0 4 3.95A4 4 0 0 0 32 30.76zM32 60.61a26.51 26.51 0 0 1-12.42-3.09 1.52 1.52 0 0 1-.8-1.34 13.22 13.22 0 0 1 26.44 0 1.52 1.52 0 0 1-.8 1.34A26.51 26.51 0 0 1 32 60.61zM21.83 55.3a23.89 23.89 0 0 0 20.34 0 10.22 10.22 0 0 0-20.34 0zM47.85 23.57a10.09 10.09 0 1 1 6-2A10 10 0 0 1 47.85 23.57zm0-17.18a7.08 7.08 0 0 0-6.58 4.44 7.17 7.17 0 0 0-.5 2.65 7.09 7.09 0 1 0 7.08-7.09z"/><path d="M48,17.4a1.5,1.5,0,0,1-1.5-1.5V11.42a1.5,1.5,0,0,1,3,0V15.9A1.5,1.5,0,0,1,48,17.4Z"/><path d="M50.21,15.16H45.73a1.5,1.5,0,0,1,0-3h4.48a1.5,1.5,0,0,1,0,3Z"/></svg>