<svg xmlns="http://www.w3.org/2000/svg" viewBox="0 0 64 64"><path fill="#96a1c3" d="M18,33.82V47.18A3,3,0,0,1,20,50v2a1,1,0,0,1-1,1H9a1,1,0,0,1-1-1V50a3,3,0,0,1,2-2.82V33.82A3,3,0,0,1,8,31V29a1,1,0,0,1,1-1H19a1,1,0,0,1,1,1v2A3,3,0,0,1,18,33.82Z"/><path fill="#ccd3eb" d="M18,33.82V47.18A3,3,0,0,1,20,50v2a1,1,0,0,1-1,1H12a.22.22,0,0,1,0-.08V50.76a3.26,3.26,0,0,1,2-3V33.29a3.26,3.26,0,0,1-2-3.05V28.08A.22.22,0,0,1,12,28h7a1,1,0,0,1,1,1v2A3,3,0,0,1,18,33.82Z"/><path fill="#96a1c3" d="M36,33.82V47.18A3,3,0,0,1,38,50v2a1,1,0,0,1-1,1H27a1,1,0,0,1-1-1V50a3,3,0,0,1,2-2.82V33.82A3,3,0,0,1,26,31V29a1,1,0,0,1,1-1H37a1,1,0,0,1,1,1v2A3,3,0,0,1,36,33.82Z"/><path fill="#ccd3eb" d="M36,33.82V47.18A3,3,0,0,1,38,50v2a1,1,0,0,1-1,1H30a.22.22,0,0,1,0-.08V50.76a3.26,3.26,0,0,1,2-3V33.29a3.26,3.26,0,0,1-2-3.05V28.08A.22.22,0,0,1,30,28h7a1,1,0,0,1,1,1v2A3,3,0,0,1,36,33.82Z"/><path fill="#96a1c3" d="M54,33.82V47.18A3,3,0,0,1,56,50v2a1,1,0,0,1-1,1H45a1,1,0,0,1-1-1V50a3,3,0,0,1,2-2.82V33.82A3,3,0,0,1,44,31V29a1,1,0,0,1,1-1H55a1,1,0,0,1,1,1v2A3,3,0,0,1,54,33.82Z"/><path fill="#ccd3eb" d="M54 33.82V47.18A3 3 0 0 1 56 50v2a1 1 0 0 1-1 1H48a.22.22 0 0 1 0-.08V50.76a3.26 3.26 0 0 1 2-3V33.29a3.26 3.26 0 0 1-2-3.05V28.08A.22.22 0 0 1 48 28h7a1 1 0 0 1 1 1v2A3 3 0 0 1 54 33.82zM57 22a1 1 0 0 1-1 1H8a1 1 0 0 1-.94-.66 1 1 0 0 1 .31-1.11L7.64 21l9.55-7.81 10.63-8.7a6.29 6.29 0 0 1 1.44-.89 5.57 5.57 0 0 1 1.06-.38 6.52 6.52 0 0 1 3.36 0 4.46 4.46 0 0 1 .73.24l.33.14a6.5 6.5 0 0 1 1.14.66l.3.23 9 7.37 3.08 2.52L49 15l3.09 2.53 3 2.45 1.23 1 .27.23A1 1 0 0 1 57 22z"/><path fill="#f5f7ff" d="M55.13,20H17a1,1,0,0,1-.94-.66,1,1,0,0,1,.31-1.11l.27-.23,9.55-7.81,8.22-6.73.33.14a6.5,6.5,0,0,1,1.14.66l.3.23,9,7.37,3.08,2.52L49,15l3.09,2.53Z"/><rect width="56" height="9" x="4" y="21" fill="#ccd3eb" rx="3" ry="3"/><path fill="#f5f7ff" d="M32.38,12h-1a.5.5,0,1,1,0-1H34a1,1,0,0,0,0-2H33V8a1,1,0,0,0-2,0V9a2.49,2.49,0,0,0,.38,5h1a.5.5,0,0,1,0,1H30a1,1,0,0,0,0,2h1v1a1,1,0,0,0,2,0V16.91A2.49,2.49,0,0,0,32.38,12Z"/><path fill="#96a1c3" d="M56,51H8a5,5,0,0,0-5,5v4a1,1,0,0,0,1,1H60a1,1,0,0,0,1-1V56A5,5,0,0,0,56,51Z"/><path fill="#033c59" d="M49.18,16.42a1,1,0,0,1-.77.37.94.94,0,0,1-.63-.23L47,15.92a1,1,0,0,1,1.26-1.54L49,15A1,1,0,0,1,49.18,16.42Z"/><path fill="#0074ff" d="M31.38,11H34a1,1,0,0,0,0-2H33V8a1,1,0,0,0-2,0V9a2.49,2.49,0,0,0,.38,5h1a.5.5,0,0,1,0,1H30a1,1,0,0,0,0,2h1v1a1,1,0,0,0,2,0V16.91A2.49,2.49,0,0,0,32.38,12h-1a.5.5,0,1,1,0-1Z"/><path fill="#033c59" d="M56,51V50a3,3,0,0,0-2-2.82V33.82A3,3,0,0,0,56,31V30h1a3,3,0,0,0,3-3V24a3,3,0,0,0-3-3h-.64l-4.23-3.45a1,1,0,1,0-1.26,1.54L53.2,21H10.8L29.08,6a4.77,4.77,0,0,1,5.17-.45,4.9,4.9,0,0,1,.67.45l9,7.36a1,1,0,0,0,1.26-1.54l-9-7.36a3.55,3.55,0,0,0-.31-.23,5.61,5.61,0,0,0-1.13-.67,6.58,6.58,0,0,0-6.92.9L17.19,13.19,7.64,21H7a3,3,0,0,0-3,3v3a3,3,0,0,0,3,3H8v1a3,3,0,0,0,2,2.82V47.18A3,3,0,0,0,8,50v1a5,5,0,0,0-5,5v4a1,1,0,0,0,1,1H60a1,1,0,0,0,1-1V56A5,5,0,0,0,56,51ZM54,31a1,1,0,0,1-1,1H47a1,1,0,0,1-1-1V30h8ZM36,47.18V33.82A3,3,0,0,0,38,31V30h6v1a3,3,0,0,0,2,2.82V47.18A3,3,0,0,0,44,50v1H38V50A3,3,0,0,0,36,47.18Zm-18,0V33.82A3,3,0,0,0,20,31V30h6v1a3,3,0,0,0,2,2.82V47.18A3,3,0,0,0,26,50v1H20V50A3,3,0,0,0,18,47.18ZM11,32a1,1,0,0,1-1-1V30h8v1a1,1,0,0,1-1,1Zm5,2V47H12V34ZM28,50a1,1,0,0,1,1-1h6a1,1,0,0,1,1,1v1H28Zm2-3V34h4V47Zm5-15H29a1,1,0,0,1-1-1V30h8v1A1,1,0,0,1,35,32ZM46,50a1,1,0,0,1,1-1h6a1,1,0,0,1,1,1v1H46Zm2-3V34h4V47ZM7,28a1,1,0,0,1-1-1V24a1,1,0,0,1,1-1H57a1,1,0,0,1,1,1v3a1,1,0,0,1-1,1Zm3,22a1,1,0,0,1,1-1h6a1,1,0,0,1,1,1v1H10Zm49,9H5V56a3,3,0,0,1,3-3H56a3,3,0,0,1,3,3Z"/></svg>