<svg xmlns="http://www.w3.org/2000/svg" data-name="Layer 1" viewBox="0 0 512 512"><path fill="#e1e1e3" d="M254.32,8.64,8.12,175.57H503.88L257.68,8.64A3,3,0,0,0,254.32,8.64Z"/><path fill="#c8c5cc" d="M257.68,8.64a3,3,0,0,0-3.36,0l-13.32,9,232.88,157.9h30Z"/><path fill="#aeadb3" d="M113.91,140.08,254.32,44.89a3,3,0,0,1,3.36,0l140.41,95.19a3,3,0,0,1-1.68,5.49H115.59A3,3,0,0,1,113.91,140.08Z"/><path fill="#8b8893" d="M398.09 140.08L257.68 44.89a3 3 0 0 0-3.36 0l-13.32 9 127.09 86.16a3 3 0 0 1-1.68 5.49h30A3 3 0 0 0 398.09 140.08zM504.5 504.5H7.5l9.28-25.6a3 3 0 0 1 2.82-2H492.4a3 3 0 0 1 2.82 2z"/><path fill="#787681" d="M495.22,478.9a3,3,0,0,0-2.82-2h-30a3,3,0,0,1,2.82,2l9.28,25.6h30Z"/><path fill="#aeadb3" d="M480.45,476.93H31.55l8.35-25.51a3,3,0,0,1,2.85-2.07h426.5a3,3,0,0,1,2.85,2.07Z"/><path fill="#8b8893" d="M472.1,451.42a3,3,0,0,0-2.85-2.07h-30a3,3,0,0,1,2.85,2.07l8.35,25.51h30Z"/><rect width="74.6" height="200.78" x="83.2" y="248.57" fill="#e1e1e3"/><rect width="20" height="200.78" x="137.8" y="248.57" fill="#c8c5cc"/><path fill="#8b8893" d="M70,225.57H171a0,0,0,0,1,0,0v0a33,33,0,0,1-33,33H103a33,33,0,0,1-33-33v0A0,0,0,0,1,70,225.57Z"/><path fill="#787681" d="M141,225.57a33,33,0,0,1-33,33h30a33,33,0,0,0,33-33Z"/><path fill="#8b8893" d="M103,416.35h35a33,33,0,0,1,33,33v0a0,0,0,0,1,0,0H70a0,0,0,0,1,0,0v0A33,33,0,0,1,103,416.35Z"/><path fill="#787681" d="M138,416.35H108a33,33,0,0,1,33,33h30A33,33,0,0,0,138,416.35Z"/><rect width="74.6" height="200.78" x="354.2" y="248.57" fill="#e1e1e3"/><rect width="20" height="200.78" x="408.8" y="248.57" fill="#c8c5cc"/><path fill="#8b8893" d="M341,225.57H442a0,0,0,0,1,0,0v0a33,33,0,0,1-33,33H374a33,33,0,0,1-33-33v0a0,0,0,0,1,0,0Z"/><path fill="#787681" d="M412,225.57a33,33,0,0,1-33,33h30a33,33,0,0,0,33-33Z"/><path fill="#8b8893" d="M374,416.35h35a33,33,0,0,1,33,33v0a0,0,0,0,1,0,0H341a0,0,0,0,1,0,0v0A33,33,0,0,1,374,416.35Z"/><path fill="#787681" d="M409,416.35H379a33,33,0,0,1,33,33h30A33,33,0,0,0,409,416.35Z"/><path fill="#8b8893" d="M391.5 392.5A7.5 7.5 0 0 1 384 385V289.47a7.5 7.5 0 0 1 15 0V385A7.5 7.5 0 0 1 391.5 392.5zM120.5 392.5A7.5 7.5 0 0 1 113 385V289.47a7.5 7.5 0 0 1 15 0V385A7.5 7.5 0 0 1 120.5 392.5z"/><circle cx="256" cy="100.5" r="17.5" fill="#fee27d"/><path fill="#fddd5a" d="M256,83a17.57,17.57,0,0,0-5,.73,17.5,17.5,0,0,1,0,33.54A17.5,17.5,0,1,0,256,83Z"/><circle cx="256" cy="337.46" r="69.8" fill="#fee27d"/><path fill="#fddd5a" d="M256,267.66a69.92,69.92,0,0,0-15,1.64,69.79,69.79,0,0,1,0,136.32,69.8,69.8,0,1,0,15-138Z"/><path fill="#7dc7a2" d="M259.71,375.08H247.28a17.57,17.57,0,0,1-17.55-17.55,7.5,7.5,0,0,1,15,0,2.55,2.55,0,0,0,2.55,2.55h12.43a7.56,7.56,0,1,0,0-15.12h-7.42a22.56,22.56,0,1,1,0-45.12h12.43a17.57,17.57,0,0,1,17.55,17.55v1a7.5,7.5,0,0,1-15,0v-1a2.55,2.55,0,0,0-2.55-2.55H252.29a7.56,7.56,0,1,0,0,15.12h7.42a22.56,22.56,0,1,1,0,45.12Z"/><path fill="#7dc7a2" d="M256 314.84a7.5 7.5 0 0 1-7.5-7.5V294.41a7.5 7.5 0 0 1 15 0v12.93A7.5 7.5 0 0 1 256 314.84zM256 388a7.5 7.5 0 0 1-7.5-7.5V367.58a7.5 7.5 0 1 1 15 0v12.93A7.5 7.5 0 0 1 256 388z"/><rect width="496.38" height="50" x="8.12" y="175.57" fill="#aeadb3" rx="3"/><path fill="#8b8893" d="M501.5,175.57h-30a3,3,0,0,1,3,3v44a3,3,0,0,1-3,3h30a3,3,0,0,0,3-3v-44A3,3,0,0,0,501.5,175.57Z"/><path fill="#18171c" d="M231,100.5a25,25,0,1,0,25-25A25,25,0,0,0,231,100.5Zm35,0a10,10,0,1,1-10-10A10,10,0,0,1,266,100.5Zm144.39,38.86L260.21,37.54a7.48,7.48,0,0,0-8.42,0L101.61,139.36a7.5,7.5,0,0,0,4.21,13.71H406.18a7.5,7.5,0,0,0,4.21-13.71Zm-280.14-1.29L256,52.81l125.75,85.26ZM391.5,282a7.5,7.5,0,0,0-7.5,7.5V385a7.5,7.5,0,0,0,15,0V289.47A7.5,7.5,0,0,0,391.5,282ZM256,414.76a77.3,77.3,0,1,0-77.3-77.3A77.39,77.39,0,0,0,256,414.76Zm0-139.6a62.3,62.3,0,1,1-62.3,62.3A62.37,62.37,0,0,1,256,275.16ZM120.5,282a7.5,7.5,0,0,0-7.5,7.5V385a7.5,7.5,0,0,0,15,0V289.47A7.5,7.5,0,0,0,120.5,282Zm328.29-48.9H504.5a7.5,7.5,0,0,0,7.5-7.5v-50a7.51,7.51,0,0,0-5.35-7.19L260.21,1.29a7.51,7.51,0,0,0-8.42,0L3.94,169.34l0,0h0a7.22,7.22,0,0,0-.86.69l-.14.13a8.3,8.3,0,0,0-.69.76l-.12.17a7,7,0,0,0-1,1.88.76.76,0,0,0-.06.16,7,7,0,0,0-.28,1,.77.77,0,0,1,0,.15,7,7,0,0,0-.09.93c0,.07,0,.14,0,.21v50.11a7.5,7.5,0,0,0,7.5,7.5H63.21A40.51,40.51,0,0,0,75.7,255.46v164a40.51,40.51,0,0,0-12.49,22.39H40.58A7.5,7.5,0,0,0,33.45,447l-7.34,22.41H17.5a7.49,7.49,0,0,0-7,4.94l-10,27.57A7.5,7.5,0,0,0,7.5,512h497a7.5,7.5,0,0,0,7.05-10.06l-10-27.57a7.49,7.49,0,0,0-7.05-4.94h-8.61L478.55,447a7.5,7.5,0,0,0-7.13-5.17H448.79a40.51,40.51,0,0,0-12.49-22.39v-164A40.51,40.51,0,0,0,448.79,233.07ZM256,16.56,479.45,168.07H32.55ZM480.43,484.43h8.81L493.8,497H18.2l4.56-12.57H480.43ZM466,456.85l4.12,12.58H41.89L46,456.85ZM138,251.07H103a25.54,25.54,0,0,1-24.37-18h83.74A25.54,25.54,0,0,1,138,251.07Zm12.3,13.08V410.77a40.33,40.33,0,0,0-12.3-1.92H103a40.33,40.33,0,0,0-12.3,1.92V264.15a40.33,40.33,0,0,0,12.3,1.92h35A40.33,40.33,0,0,0,150.3,264.15ZM103,423.85h35a25.54,25.54,0,0,1,24.37,18H78.63A25.54,25.54,0,0,1,103,423.85Zm62.3-4.39v-164a40.51,40.51,0,0,0,12.49-22.39H334.21a40.51,40.51,0,0,0,12.49,22.39v164a40.51,40.51,0,0,0-12.49,22.39H177.79A40.51,40.51,0,0,0,165.3,419.46ZM409,251.07H374a25.54,25.54,0,0,1-24.37-18h83.74A25.54,25.54,0,0,1,409,251.07Zm12.3,13.08V410.77a40.33,40.33,0,0,0-12.3-1.92H374a40.33,40.33,0,0,0-12.3,1.92V264.15a40.33,40.33,0,0,0,12.3,1.92h35A40.33,40.33,0,0,0,421.3,264.15ZM374,423.85h35a25.54,25.54,0,0,1,24.37,18H349.63A25.54,25.54,0,0,1,374,423.85ZM15.62,218.07v-35H497v35Zm244.09,142H247.28a2.55,2.55,0,0,1-2.55-2.55,7.5,7.5,0,0,0-15,0,17.57,17.57,0,0,0,17.55,17.55h1.22v5.43a7.5,7.5,0,0,0,15,0v-5.76A22.55,22.55,0,0,0,259.71,330h-7.42a7.56,7.56,0,1,1,0-15.12h12.43a2.55,2.55,0,0,1,2.55,2.55v1a7.5,7.5,0,0,0,15,0v-1a17.57,17.57,0,0,0-17.55-17.55H263.5v-5.43a7.5,7.5,0,0,0-15,0v5.75a22.56,22.56,0,0,0,3.79,44.8h7.42a7.56,7.56,0,1,1,0,15.12Z"/></svg>