<svg xmlns="http://www.w3.org/2000/svg" enable-background="new 0 0 98 98" viewBox="0 0 98 98"><polygon points="51.257 3.76 51.257 14.685 62.172 14.685"/><path d="M31.0863,28.414c5.5076,0,9.98-4.4724,9.98-9.98c0-5.4975-4.4725-9.98-9.98-9.98c-5.4976,0-9.98,4.4825-9.98,9.98
		C21.1062,23.9416,25.5887,28.414,31.0863,28.414z M31.0898,19.429c-1.9306,0-3.5014-1.5704-3.5014-3.501
		c0-1.5789,1.0576-2.9016,2.4964-3.3367V10.76h2.0101v1.8313c1.4387,0.4352,2.4959,1.7578,2.4959,3.3367h-2.0101
		c0-0.8225-0.6689-1.4913-1.4909-1.4913c-0.8225,0-1.4913,0.6689-1.4913,1.4913c0,0.822,0.6689,1.4909,1.4913,1.4909
		c1.9306,0,3.501,1.5708,3.501,3.5014c0,1.5789-1.0572,2.9013-2.4959,3.3363v1.8592h-2.0101v-1.8592
		c-1.4389-0.4351-2.4964-1.7574-2.4964-3.3363h2.0101c0,0.822,0.6689,1.4909,1.4913,1.4909c0.822,0,1.4909-0.6689,1.4909-1.4909
		C32.5807,20.0978,31.9118,19.429,31.0898,19.429z"/><path d="M63.5993,44.3037l-9.6183-4.8242c-0.6131-0.3116-1.1659-0.6935-1.6583-1.1156h-12.161v-2.0101h10.4624
		c-1.3266-2.2312-1.5477-5.0453-0.3517-7.5881c1.9598-4.1408,7.0454-5.9599,11.2464-3.6784l2.0804,1.1357v-9.5278h-14.352V2.3433
		h-35.287V68.495h49.639V44.3037z M31.0863,6.4438c6.6132,0,11.9901,5.387,11.9901,11.9901c0,6.6132-5.377,11.9901-11.9901,11.9901
		S19.0961,25.0472,19.0961,18.434C19.0961,11.8309,24.4731,6.4438,31.0863,6.4438z M27.9923,45.8873h-7.8881v-2.0101h7.8881V45.8873
		z M40.8066,51.7335v2.0101H20.1041v-2.0101H40.8066z M20.1041,38.3623v-2.0101h15.4044v2.0101H20.1041z M29.1014,61.6004h-8.9973
		v-2.0101h8.9973V61.6004z M54.6391,61.6004H32.6745v-2.0101h21.9646V61.6004z M54.6391,53.7436H45.634v-2.0101h9.0051V53.7436z
		 M54.6391,45.8873H32.6745v-2.0101h21.9646V45.8873z"/><path d="M80.1624 36.7759c-.1307-.0662-2.7955-1.4156-19.6084-9.9298-3.1859-1.7286-7.0051-.3216-8.4624 2.774-1.397 2.9749-.1407 6.583 2.794 8.0604l10.7239 5.387v27.4376H39.6593l16.7339 15.5781 23.7692-24.7441V36.7759zM80.1624 36.7759L80.1624 36.7759C80.1694 36.7795 80.1682 36.7789 80.1624 36.7759z"/><path d="M79.8861 36.636C79.832 36.6087 79.8432 36.6143 79.8861 36.636L79.8861 36.636zM79.9762 36.6816c-.0351-.0178-.0661-.0335-.0901-.0456C79.906 36.6461 79.9356 36.661 79.9762 36.6816zM79.9762 36.6816c.0784.0398.1656.0839.1862.0943l0 0C80.0808 36.7347 80.0236 36.7056 79.9762 36.6816z"/><polygon points="83.399 64.264 59.237 88.435 67.469 96.656 91.63 72.495"/><rect width="10.253" height="1.986" x="40.507" y="82.984" transform="rotate(-136.736 45.632 83.977)"/><rect width="3.831" height="1.986" x="36.851" y="76.519" transform="rotate(-136.727 38.768 77.511)"/><rect width="1.986" height="11.619" x="85.465" y="46.16"/><rect width="1.986" height="4.472" x="85.465" y="38.369"/><rect width="1.986" height="38.334" x="5.37" y="22.261"/><rect width="1.986" height="5.673" x="5.37" y="10.76"/><rect width="7.612" height="1.986" x="60.135" y="6.44" transform="rotate(-133.428 63.944 7.433)"/><rect width="2.649" height="1.986" x="57.759" y="1.308" transform="rotate(46.572 59.087 2.3)"/><rect width="1.986" height="11.674" x="79.776" y="84.09" transform="rotate(-134.999 80.769 89.927)"/><rect width="3.562" height="1.986" x="86.621" y="81.3" transform="rotate(-44.992 88.408 82.297)"/></svg>