<svg xmlns="http://www.w3.org/2000/svg" enable-background="new 0 0 512 512" viewBox="0 0 512 512"><path fill-rule="evenodd" d="M45.15,248h82.605c-0.163,2.647-0.255,5.312-0.255,8c0,2.688,0.092,5.353,0.255,8H45.15
	c-0.099-2.66-0.15-5.326-0.15-8C45,253.326,45.051,250.66,45.15,248L45.15,248z M354,420.448c0,16.846,5.555,32.395,14.932,44.916
	l-8.92,33.288c-0.304,1.134-0.003,2.258,0.827,3.087c0.83,0.83,1.954,1.131,3.087,0.827l41.134-11.022
	c7.517,2.53,15.568,3.903,23.938,3.903c41.421,0,75-33.579,75-75c0-41.422-33.579-75-75-75C387.578,345.448,354,379.027,354,420.448
	L354,420.448z M404.375,419.751c0,5.246-4.254,9.5-9.5,9.5s-9.5-4.254-9.5-9.5s4.254-9.5,9.5-9.5S404.375,414.504,404.375,419.751
	L404.375,419.751z M463.125,429.251c-5.246,0-9.5-4.254-9.5-9.5s4.254-9.5,9.5-9.5c5.246,0,9.5,4.254,9.5,9.5
	S468.371,429.251,463.125,429.251L463.125,429.251z M438.5,419.751c0,5.246-4.254,9.5-9.5,9.5c-5.246,0-9.5-4.254-9.5-9.5
	s4.254-9.5,9.5-9.5C434.246,410.251,438.5,414.504,438.5,419.751L438.5,419.751z M69.643,96.358
	C62.982,89.71,57.078,82.35,52.06,74.415c-1.832-2.898-1.813-6.38,0.05-9.257l7.161-11.057c1.528-2.36,1.819-5.053,0.832-7.685
	l-12.318-32.83c-1.929-5.142-8.034-7.176-12.662-4.219c-5.728,3.66-11.457,7.32-17.185,10.98
	c-7.843,5.011-11.484,14.019-9.323,23.072c6.649,27.864,21.152,52.939,41.197,72.77c19.831,20.045,44.906,34.548,72.77,41.197
	c9.053,2.16,18.061-1.481,23.072-9.323c3.66-5.728,7.32-11.457,10.98-17.185c2.957-4.628,0.922-10.733-4.219-12.662l-32.83-12.318
	c-2.632-0.988-5.325-0.696-7.685,0.832l-11.057,7.161c-2.877,1.863-6.359,1.882-9.257,0.05
	C83.651,108.923,76.291,103.019,69.643,96.358L69.643,96.358z M24.129,397.548h127.742c0.539,0,1.072,0.027,1.599,0.079
	l-65.409,43.518L88,441.181l-0.061-0.036l-65.409-43.518C23.057,397.575,23.59,397.548,24.129,397.548L24.129,397.548z
	 M166.911,407.86l-52.52,34.943l52.946,49.637c0.43-1.45,0.662-2.983,0.662-4.569v-74.194
	C168,411.628,167.614,409.666,166.911,407.86L166.911,407.86z M155.81,503.511c-1.261,0.319-2.581,0.489-3.939,0.489H24.129
	c-1.358,0-2.678-0.17-3.939-0.489l55.068-51.627l3.868,2.574c2.728,1.815,5.793,2.723,8.873,2.723c3.08,0,6.145-0.908,8.873-2.723
	l3.868-2.574L155.81,503.511L155.81,503.511z M8.662,492.44l52.946-49.637L9.089,407.86C8.386,409.666,8,411.628,8,413.677v74.194
	C8,489.457,8.232,490.99,8.662,492.44L8.662,492.44z M421,8.525c-15.52,1.648-29.625,8.034-40.838,17.688
	c6.229,1.059,12.698,1.922,19.365,2.568c6.859,0.665,14.032,1.099,21.474,1.28V8.525L421,8.525z M367.661,40.012
	C360.562,50.124,355.898,62.07,354.525,75H421V46.057c-7.753-0.195-15.432-0.669-22.974-1.401
	c-10.301-0.998-20.151-2.481-29.402-4.384C368.294,40.205,367.972,40.117,367.661,40.012L367.661,40.012z M354.525,91
	c1.374,12.93,6.035,24.877,13.136,34.988c0.311-0.105,0.632-0.192,0.963-0.26c9.251-1.903,19.101-3.386,29.402-4.384
	c7.542-0.731,15.221-1.206,22.974-1.401V91H354.525L354.525,91z M380.162,139.787c11.214,9.652,25.318,16.04,40.838,17.688v-21.536
	c-7.442,0.181-14.614,0.615-21.474,1.28C392.86,137.865,386.39,138.728,380.162,139.787L380.162,139.787z M437,157.475
	c15.52-1.648,29.625-8.034,40.838-17.688c-6.229-1.059-12.698-1.922-19.364-2.568c-6.86-0.665-14.032-1.099-21.474-1.28V157.475
	L437,157.475z M490.339,125.988c7.099-10.112,11.763-22.058,13.136-34.988H437v28.943c7.753,0.195,15.432,0.67,22.974,1.401
	c10.301,0.998,20.151,2.481,29.402,4.384C489.706,125.796,490.027,125.883,490.339,125.988L490.339,125.988z M503.475,75
	c-1.374-12.929-6.036-24.877-13.136-34.988c-0.311,0.105-0.633,0.193-0.963,0.26c-9.251,1.903-19.101,3.386-29.402,4.384
	c-7.542,0.731-15.221,1.206-22.974,1.401V75H503.475L503.475,75z M477.838,26.213C466.624,16.561,452.52,10.174,437,8.525v21.536
	c7.442-0.181,14.614-0.615,21.474-1.28C465.14,28.135,471.609,27.272,477.838,26.213L477.838,26.213z M256,143.5
	c62.132,0,112.5,50.368,112.5,112.5c0,62.132-50.368,112.5-112.5,112.5S143.5,318.132,143.5,256
	C143.5,193.868,193.867,143.5,256,143.5L256,143.5z M256.001,181.469c-21.937,0-39.721,17.784-39.721,39.721
	c0,21.937,17.784,39.721,39.721,39.721c21.937,0,39.721-17.784,39.721-39.721C295.722,199.253,277.938,181.469,256.001,181.469
	L256.001,181.469z M256,265.912c-34.078,0-63.089,21.715-73.971,52.055C167.97,301.202,159.5,279.591,159.5,256
	c0-53.295,43.204-96.5,96.5-96.5s96.5,43.204,96.5,96.5c0,23.591-8.47,45.202-22.529,61.966
	C319.096,287.621,290.086,265.912,256,265.912L256,265.912z M256,13c34.445,0,67.216,7.169,96.904,20.094
	c-2.931,4.46-5.482,9.191-7.604,14.149C317.891,35.503,287.705,29,256,29c-62.685,0-119.435,25.408-160.514,66.486
	c-0.353,0.353-0.702,0.71-1.053,1.066c-4.335-3.142-8.44-6.6-12.282-10.331c0.67-0.687,1.344-1.369,2.023-2.048
	C128.148,40.199,188.899,13,256,13L256,13z M478.906,159.096C491.831,188.784,499,221.554,499,256
	c0,31.89-6.147,62.344-17.315,90.245c-4.387-3.12-9.065-5.856-13.981-8.17C477.579,312.621,483,284.944,483,256
	c0-31.705-6.503-61.891-18.243-89.299C469.715,164.578,474.446,162.027,478.906,159.096L478.906,159.096z M348.207,480.893
	C319.773,492.563,288.638,499,256,499c-25.069,0-49.251-3.798-72.004-10.847c0.001-0.094,0.004-0.188,0.004-0.282V471.34
	c22.624,7.561,46.833,11.66,72,11.66c33.018,0,64.388-7.052,92.69-19.728c0.909,1.701,1.873,3.377,2.892,5.023L348.207,480.893
	L348.207,480.893z M47.908,381.548h18.947C42.938,345.59,29,302.423,29,256c0-40.518,10.619-78.554,29.219-111.483
	c-4.338-3.214-8.533-6.635-12.571-10.249C24.889,170.063,13,211.643,13,256C13,301.942,25.753,344.906,47.908,381.548
	L47.908,381.548z M248,127.756c2.646-0.163,5.312-0.255,8-0.255c2.688,0,5.354,0.092,8,0.255V45.15c-2.659-0.099-5.326-0.15-8-0.15
	c-2.674,0-5.34,0.051-8,0.15V127.756L248,127.756z M384.245,248c0.163,2.647,0.255,5.312,0.255,8c0,2.688-0.092,5.353-0.255,8
	h82.605c0.1-2.66,0.15-5.326,0.15-8c0-2.674-0.051-5.34-0.15-8H384.245L384.245,248z M264,384.244c-2.647,0.163-5.313,0.255-8,0.255
	c-2.688,0-5.353-0.092-8-0.255v82.605c2.659,0.1,5.326,0.15,8,0.15c2.674,0,5.341-0.051,8-0.15V384.244z" clip-rule="evenodd"/></svg>