<svg xmlns="http://www.w3.org/2000/svg" viewBox="0 0 48 48"><path d="M46.88 34.39A2.27 2.27 0 0 0 44 33l-6.24 1.93C36.18 36.37 35.58 36 24 36a1 1 0 0 1 0-2c12 0 11.59.23 12.47-.65A2.05 2.05 0 0 0 37 32a2 2 0 0 0-2-2H24.3c-1.39 0-2.55-2-6.6-2H11V38.42l1.29.73A27.78 27.78 0 0 0 36.67 40.8l9-3.63A2.26 2.26 0 0 0 46.88 34.39zM1 41H9V26H1zm3.08-4.38a1 1 0 1 1 1.63 1.09A1 1 0 0 1 4.08 36.62zM31 25A10 10 0 1 0 21 15 10 10 0 0 0 31 25zm1-9H30a3 3 0 0 1 0-6V9a1 1 0 0 1 2 0v1h2a1 1 0 0 1 0 2H30a1 1 0 0 0 0 2h2a3 3 0 0 1 0 6v1a1 1 0 0 1-2 0V20H28a1 1 0 0 1 0-2h4A1 1 0 0 0 32 16z"/></svg>