<svg xmlns="http://www.w3.org/2000/svg" enable-background="new 0 0 100 100" viewBox="0 0 100 100"><path fill="#1a1a1a" d="M80.8 53.8c-1.7-.6-3.6-.1-4.6 1.2l-5.1 7c-.3.4-.8.4-1.1 0l-5.1-7c-1-1.3-2.9-1.8-4.6-1.2-2 .7-3.7 1.4-5.2 2.1-.7.3-.7 1.3 0 1.7 6.1 3.5 9.2 7.3 10.3 14.1.1.5.5.8.9.8h26.3c1.3 0 2.4-.9 2.4-2C95 60.8 91.3 57.6 80.8 53.8zM66.2 22.9c-11.4.3-11.2 13-7 20.7.6 1.1 1.6 2.3 2.6 3.1.8.6 1.8.9 2.8.9.2 0 .4-.1.5-.2 1.3 1.4 3.2 2.9 5.5 2.9 0 0 .1 0 .1 0 1.9 0 3.8-1 5.5-2.9.1.1.3.1.5.1h0c.9 0 1.7-.2 2.5-.7 1-.7 1.9-1.8 2.6-2.6C89.8 33.9 81.6 12.9 66.2 22.9zM79.2 32.7c.3 2.3-.6 6.3-1.9 10.1-1.8 3.5-4.5 5.7-6.5 5.5-3.9-.3-6.4-5.2-6.4-5.3-1.2-3.5-2.2-7-2.2-8.1 0-.2.2-.4.4-.5 3.4-1.2 5.5-4.3 6.2-5.6.2-.3.6-.4.8-.1 2.2 2.4 7.7 3.3 9.2 3.6C79 32.2 79.2 32.4 79.2 32.7zM48 58.7c-1.6-.7-3.5-.1-4.5 1.4L38 68.8c-.2.3-.7.3-.8-.1l-2.3-7.6c-.1-.3 0-.7.2-.9l1.7-1.7c.4-.3.1-1-.4-1h-2.5-1-2.5c-.5 0-.8.6-.4 1l1.7 1.7c.2.2.3.6.2.9l-2.3 7.6c-.1.4-.6.4-.8.1l-5.5-8.7c-1-1.5-2.8-2.1-4.5-1.4C8.6 62.9 5 66.6 5 77.4c0 1.3 1 2.3 2.3 2.3h25.6 1 25.6c1.3 0 2.3-1 2.3-2.3C61.8 66.6 58.1 62.9 48 58.7zM33.4 54.2c13.4 0 20.4-30.5 0-30.8C13 23.8 20 54.2 33.4 54.2z"/></svg>