<svg xmlns="http://www.w3.org/2000/svg" width="48" height="48" viewBox="0 0 48 48"><path fill-rule="evenodd" d="M 24 0 C 10.751089 0 0 10.7511 0 24 C 0 37.2489 10.751089 48 24 48 C 37.248912 48 48 37.2489 48 24 C 48 10.7511 37.248912 0 24 0 z M 24 1 C 36.708472 1 47 11.2915 47 24 C 47 36.7085 36.708472 47 24 47 C 11.291529 47 1 36.7085 1 24 C 1 11.2915 11.291529 1 24 1 z M 25.306641 8.9589844 L 25.275391 9.4238281 C 25.265061 9.5819281 25.191061 9.6922406 25.029297 9.8066406 C 24.867529 9.9210406 24.621608 10.003078 24.404297 10.017578 L 22.220703 10.017578 C 20.717662 10.017578 19.498047 11.255678 19.498047 12.767578 L 19.498047 14.767578 C 19.498047 14.844578 19.5 14.865063 19.5 14.789062 C 19.499937 14.745063 19.498047 14.732453 19.498047 14.814453 L 19.498047 15.669922 C 19.493947 15.706922 19.493947 15.74395 19.498047 15.78125 L 19.498047 17.513672 C 19.498047 18.612872 19.899652 19.609184 20.542969 20.396484 L 20.542969 22.5 L 20.511719 22.615234 L 15.957031 25.271484 C 14.732054 25.973284 13.976562 27.279406 13.976562 28.691406 L 13.976562 38.144531 L 14.042969 38.144531 C 14.018539 38.429831 14 38.718166 14 39.009766 L 15 39.009766 C 15.000032 34.019766 19.024192 29.986328 24 29.986328 C 28.975808 29.986328 32.999967 34.019766 33 39.009766 L 34 39.009766 C 33.999998 38.716866 33.981681 38.427225 33.957031 38.140625 L 34.023438 38.140625 L 34.023438 28.59375 C 34.023438 27.23955 33.299113 25.988353 32.125 25.314453 L 32.121094 25.314453 L 27.556641 22.597656 L 27.556641 20.273438 C 28.140933 19.505437 28.501953 18.555772 28.501953 17.513672 L 28.501953 14.814453 C 28.501953 14.749453 28.5005 14.753969 28.5 14.792969 C 28.500174 14.825969 28.501953 14.844531 28.501953 14.769531 L 28.501953 11.806641 L 28.498047 11.775391 C 28.399107 11.015491 28.165796 10.322075 27.714844 9.796875 C 27.263891 9.271675 26.579754 8.9550844 25.771484 8.9589844 L 25.306641 8.9589844 z M 25.955078 10.033203 C 26.380854 10.076203 26.722849 10.178819 26.955078 10.449219 C 27.226757 10.765719 27.418522 11.266931 27.501953 11.894531 L 27.501953 14.769531 C 27.501953 14.698531 27.5008 14.716109 27.5 14.787109 C 27.5 14.878109 27.501953 14.8695 27.501953 14.8125 L 27.501953 14.921875 C 27.293596 14.820575 27.0774 14.741272 26.859375 14.701172 C 26.264064 14.591672 25.656836 14.638109 25.078125 14.662109 C 24.499414 14.686109 23.954362 14.689359 23.515625 14.568359 C 23.076888 14.447159 22.740169 14.238275 22.449219 13.734375 C 22.355089 13.570675 22.176803 13.473975 21.988281 13.484375 C 21.772284 13.496375 21.588649 13.646369 21.533203 13.855469 C 21.551363 13.787469 21.475433 13.958541 21.339844 14.119141 C 21.204252 14.279741 21.015653 14.470384 20.818359 14.646484 C 20.708778 14.744484 20.60616 14.811931 20.498047 14.894531 L 20.498047 14.810547 C 20.498047 14.883547 20.4996 14.862062 20.5 14.789062 C 20.5 14.698062 20.498047 14.706672 20.498047 14.763672 L 20.498047 12.763672 C 20.498047 11.781872 21.261085 11.013672 22.220703 11.013672 L 24.453125 11.013672 L 24.470703 11.013672 C 24.863392 10.987672 25.263885 10.863994 25.607422 10.621094 C 25.785741 10.495105 25.835273 10.235688 25.955078 10.033203 z M 22.154297 14.679688 C 22.50368 15.016188 22.832094 15.41635 23.248047 15.53125 C 23.881589 15.70615 24.526341 15.687009 25.121094 15.662109 C 25.715846 15.637109 26.264558 15.607594 26.677734 15.683594 C 27.056668 15.753594 27.299191 15.877741 27.501953 16.181641 L 27.501953 17.511719 C 27.501953 19.490819 25.944529 21.0625 24 21.0625 C 22.055482 21.0625 20.498047 19.490819 20.498047 17.511719 L 20.498047 16.099609 C 20.592737 16.051609 20.684463 15.999553 20.779297 15.939453 C 21.015105 15.789553 21.255416 15.598831 21.484375 15.394531 C 21.713334 15.190131 21.928291 14.973125 22.103516 14.765625 C 22.126456 14.738625 22.132537 14.705688 22.154297 14.679688 z M 26.556641 21.255859 L 26.556641 23.134766 C 26.128542 23.916466 25.779309 24.751328 24.84375 25.548828 L 24.011719 26.324219 L 23.177734 25.509766 C 22.512337 24.787466 21.880923 23.9384 21.542969 23.125 L 21.542969 21.322266 C 22.250006 21.789866 23.091568 22.066406 24 22.066406 C 24.951449 22.066406 25.830004 21.764759 26.556641 21.255859 z M 20.140625 23.992188 L 19.501953 26.357422 L 19.498047 26.388672 C 19.403997 27.166872 20.236872 27.821269 20.955078 27.480469 L 20.958984 27.480469 L 22.818359 26.554688 L 23.5 27.21875 L 23.5 29.013672 C 21.659773 29.105672 19.949549 29.685531 18.501953 30.644531 L 18.501953 30.017578 L 17.501953 30.017578 L 17.501953 31.404297 C 16.443294 32.314297 15.582533 33.441197 14.976562 34.716797 L 14.976562 28.693359 C 14.976562 27.637159 15.539959 26.662772 16.457031 26.138672 L 16.458984 26.138672 L 20.140625 23.992188 z M 27.976562 24.013672 L 31.619141 26.179688 L 31.623047 26.179688 C 32.490687 26.675487 33.023437 27.59435 33.023438 28.59375 L 33.023438 34.716797 C 32.421676 33.449997 31.568187 32.330428 30.519531 31.423828 L 30.519531 30.017578 L 29.519531 30.017578 L 29.519531 30.658203 C 28.069997 29.692603 26.355271 29.105519 24.509766 29.011719 L 24.509766 27.224609 L 25.238281 26.546875 L 27.207031 27.480469 L 27.210938 27.480469 C 27.938969 27.810369 28.793748 27.179719 28.693359 26.386719 L 28.6875 26.341797 L 28.673828 26.296875 C 28.673828 26.296875 28.408446 25.470953 28.154297 24.626953 C 28.087767 24.406053 28.036622 24.221672 27.976562 24.013672 z M 21.130859 24.154297 C 21.447845 24.718297 21.75095 25.273113 22.167969 25.757812 L 20.525391 26.574219 C 20.491081 26.590219 20.487981 26.574672 20.494141 26.513672 L 21.130859 24.154297 z M 27.033203 24.351562 C 27.089453 24.545762 27.13655 24.718322 27.197266 24.919922 C 27.441925 25.732322 27.670781 26.444784 27.695312 26.521484 C 27.698113 26.575484 27.68196 26.598266 27.625 26.572266 L 25.933594 25.771484 C 26.391022 25.270584 26.788708 24.804163 27.033203 24.351562 z M 23.5 30.787109 L 23.5 32.027344 L 24.5 32.027344 L 24.5 30.787109 L 23.5 30.787109 z M 22.373047 30.931641 L 21.408203 31.191406 L 21.732422 32.390625 L 22.697266 32.128906 L 22.373047 30.931641 z M 25.628906 30.931641 L 25.302734 32.128906 L 26.267578 32.390625 L 26.59375 31.191406 L 25.628906 30.931641 z M 27.644531 31.634766 L 27.017578 32.708984 L 27.880859 33.212891 L 28.509766 32.138672 L 27.644531 31.634766 z M 20.355469 31.658203 L 19.492188 32.162109 L 20.119141 33.236328 L 20.982422 32.732422 L 20.355469 31.658203 z M 29.414062 32.804688 L 28.527344 33.681641 L 29.230469 34.392578 L 30.117188 33.515625 L 29.414062 32.804688 z M 18.585938 32.84375 L 17.882812 33.554688 L 18.769531 34.431641 L 19.472656 33.720703 L 18.585938 32.84375 z M 21.378906 33.853516 L 21.378906 33.855469 C 21.025036 33.855069 20.782791 34.212416 20.914062 34.541016 L 22.541016 38.615234 C 22.553676 38.646234 22.569391 38.675125 22.587891 38.703125 C 22.568461 38.796125 22.558594 38.893788 22.558594 38.992188 L 23.558594 38.992188 C 23.558597 38.751287 23.747727 38.560547 24 38.560547 C 24.252273 38.560547 24.441411 38.751388 24.441406 38.992188 L 25.441406 38.992188 C 25.441417 38.418087 25.017152 37.858559 24.523438 37.630859 L 24.523438 37.632812 L 24.148438 37.300781 C 24.592699 37.688554 24.10741 37.269268 24.519531 37.626953 L 21.771484 34.042969 C 21.676484 33.923169 21.531852 33.853316 21.378906 33.853516 z M 30.814453 34.375 L 29.726562 34.996094 L 30.222656 35.863281 L 31.308594 35.244141 L 30.814453 34.375 z M 17.1875 34.4375 L 16.691406 35.306641 L 17.777344 35.927734 L 18.273438 35.058594 L 17.1875 34.4375 z M 31.748047 36.191406 L 30.537109 36.511719 L 30.792969 37.478516 L 32.003906 37.158203 L 31.748047 36.191406 z M 16.251953 36.333984 L 15.996094 37.300781 L 17.208984 37.623047 L 17.464844 36.65625 L 16.251953 36.333984 z M 23.126953 37.382812 L 23.380859 37.705078 C 23.345469 37.722078 23.311099 37.743672 23.277344 37.763672 L 23.126953 37.382812 z M 15.847656 38.041016 L 15.847656 39.041016 L 17.101562 39.041016 L 17.101562 38.041016 L 15.847656 38.041016 z M 30.900391 38.041016 L 30.900391 39.041016 L 32.154297 39.041016 L 32.154297 38.041016 L 30.900391 38.041016 z " color="#000" font-family="sans-serif" font-weight="400" overflow="visible" style="line-height:normal;text-indent:0;text-align:start;text-decoration-line:none;text-decoration-style:solid;text-decoration-color:#000;text-transform:none;block-progression:tb;isolation:auto;mix-blend-mode:normal"/></svg>