<svg xmlns="http://www.w3.org/2000/svg" width="96" height="96" viewBox="0 0 96 96"><path d="M 48 0 C 21.502177 0 0 21.50217 0 48 C 0 74.4979 21.502177 96 48 96 C 74.497823 96 96 74.4979 96 48 C 96 21.50217 74.497823 0 48 0 z M 48 2 C 73.416943 2 94 22.58307 94 48 C 94 73.417 73.416943 94 48 94 C 22.583057 94 2 73.417 2 48 C 2 22.58308 22.583057 2 48 2 z M 47.949219 24.128906 C 45.469864 24.128906 43.449225 26.147633 43.449219 28.626953 C 43.449219 31.106253 45.46986 33.126953 47.949219 33.126953 C 50.428578 33.126953 52.449219 31.106253 52.449219 28.626953 C 52.449213 26.147633 50.428573 24.128906 47.949219 24.128906 z M 47.949219 25.128906 C 49.888134 25.128906 51.449214 26.688073 51.449219 28.626953 L 47.949219 28.626953 L 44.449219 28.626953 C 44.449224 26.688073 46.010303 25.128906 47.949219 25.128906 z M 41.25 34.373047 C 38.355473 34.373047 36 36.750031 36 39.644531 L 36 50.123047 C 36 51.365147 37.007082 52.373047 38.25 52.373047 C 39.492917 52.373047 40.5 51.365147 40.5 50.123047 L 40.5 39.644531 C 40.5 39.231431 40.836183 38.873047 41.25 38.873047 L 42 38.873047 L 42 54.623047 L 42 55.373047 L 42 69.623047 C 42 70.865147 43.007083 71.873047 44.25 71.873047 C 45.492918 71.873047 46.5 70.865147 46.5 69.623047 L 46.5 58.373047 L 49.5 58.373047 L 49.5 69.623047 C 49.5 70.865147 50.507087 71.873047 51.75 71.873047 C 52.992913 71.873047 54 70.865147 54 69.623047 L 54 55.373047 L 54 54.623047 L 54 38.873047 L 54.5625 38.873047 C 55.009275 38.873047 55.5 39.275431 55.5 39.644531 L 55.5 49.373047 C 55.5 50.615147 56.507087 51.623047 57.75 51.623047 C 58.992913 51.623047 60 50.615147 60 49.373047 L 60 39.644531 C 60 36.786731 57.509755 34.373047 54.5625 34.373047 L 52.5 34.373047 L 49.5 34.373047 L 46.5 34.373047 L 43.5 34.373047 L 41.25 34.373047 z "/></svg>