<svg xmlns="http://www.w3.org/2000/svg" data-name="Layer 1" viewBox="0 0 64 64"><path d="M61,26.54a6.55,6.55,0,0,1-4.633-11.183,1,1,0,0,0,0-1.414l-6.31-6.31a1,1,0,0,0-1.414,0A6.379,6.379,0,0,1,44.06,9.57,6.522,6.522,0,0,1,37.46,3a1,1,0,0,0-1-1H27.54a1,1,0,0,0-1,1,6.522,6.522,0,0,1-6.6,6.57,6.379,6.379,0,0,1-4.583-1.937,1,1,0,0,0-1.414,0l-6.31,6.31a1,1,0,0,0,0,1.414A6.366,6.366,0,0,1,9.57,19.94,6.523,6.523,0,0,1,3,26.54a1,1,0,0,0-1,1v8.92a1,1,0,0,0,1,1,6.523,6.523,0,0,1,6.57,6.6,6.366,6.366,0,0,1-1.937,4.583,1,1,0,0,0,0,1.414l6.31,6.31a1,1,0,0,0,1.414,0A6.379,6.379,0,0,1,19.94,54.43a6.6,6.6,0,0,1,2.66.556l.8-1.832a8.577,8.577,0,0,0-3.46-.724,8.391,8.391,0,0,0-5.251,1.855L9.715,49.311A8.385,8.385,0,0,0,11.57,44.06,8.514,8.514,0,0,0,4,35.512V28.488a8.514,8.514,0,0,0,7.57-8.548,8.385,8.385,0,0,0-1.855-5.251l4.974-4.974A8.391,8.391,0,0,0,19.94,11.57,8.515,8.515,0,0,0,28.488,4h7.024a8.515,8.515,0,0,0,8.548,7.57,8.391,8.391,0,0,0,5.251-1.855l4.974,4.974A8.556,8.556,0,0,0,60,28.485v7.027a8.514,8.514,0,0,0-7.57,8.548,8.385,8.385,0,0,0,1.855,5.251l-4.974,4.974A8.582,8.582,0,0,0,40.6,53.154l.8,1.832a6.6,6.6,0,0,1,2.66-.556,6.379,6.379,0,0,1,4.583,1.937,1,1,0,0,0,1.414,0l6.31-6.31a1,1,0,0,0,0-1.414A6.366,6.366,0,0,1,54.43,44.06,6.523,6.523,0,0,1,61,37.46a1,1,0,0,0,1-1V27.54A1,1,0,0,0,61,26.54Z"/><path d="M23,39h4.41V37H24V23H40V37H36.59v2H41a1,1,0,0,0,1-1V23h1a1,1,0,0,0,.414-1.91l-11-5a1,1,0,0,0-.828,0l-11,5A1,1,0,0,0,21,23h1V38A1,1,0,0,0,23,39Zm9-20.9L38.384,21H25.616Z"/><path d="M52,32A20,20,0,1,0,22.526,49.611l.948-1.762a18,18,0,1,1,17.052,0l.948,1.762A19.97,19.97,0,0,0,52,32Z"/><path d="M35 28.8v-.3a2.533 2.533 0 0 0-2-2.411V25H31v1.089A2.533 2.533 0 0 0 29 28.5 2.591 2.591 0 0 0 31.667 31h.666c.361 0 .667.229.667.5s-.306.5-.667.5h-.666c-.361 0-.667-.229-.667-.5v-.3H29v.3a2.533 2.533 0 0 0 2 2.411V35h2V33.911A2.533 2.533 0 0 0 35 31.5 2.591 2.591 0 0 0 32.333 29h-.666c-.361 0-.667-.229-.667-.5s.306-.5.667-.5h.666c.361 0 .667.229.667.5v.3zM35.537 50.835a6 6 0 1 0-7.074 0A8 8 0 0 0 24 58v3a1 1 0 0 0 1 1H39a1 1 0 0 0 1-1V58A8 8 0 0 0 35.537 50.835zM28 46a4 4 0 1 1 4 4A4 4 0 0 1 28 46zM38 60H26V58a6 6 0 0 1 12 0z"/></svg>