<svg xmlns="http://www.w3.org/2000/svg" data-name="Layer 1" viewBox="0 0 512 512"><path fill="#19ac66" d="M86.94 124.83a7.48 7.48 0 0 1-6.86-10.48l0 0a7.5 7.5 0 1 1 6.84 10.53zM436.07 157.67a7.52 7.52 0 0 1-7.3-5.79l0-.09a7.5 7.5 0 0 1 14.6-3.44l0 .1a7.51 7.51 0 0 1-5.59 9A7.76 7.76 0 0 1 436.07 157.67zm-9.53-29.16a7.54 7.54 0 1 1 6.82-10.6l.12.27a7.51 7.51 0 0 1-4.12 9.78A7.64 7.64 0 0 1 426.54 128.51zm-14.26-27.16a7.53 7.53 0 1 1 6.21-11.7l.21.34a7.5 7.5 0 0 1-6.42 11.36zM101.67 98A7.51 7.51 0 0 1 95.4 86.37l.16-.23A7.5 7.5 0 1 1 101.67 98zm292.1-21.11a7.55 7.55 0 0 1-5.55-2.43l-.17-.19a7.5 7.5 0 1 1 11.23-9.94l-5.62 5 5.63-5a7.49 7.49 0 0 1-5.52 12.55zm-273.08-3a7.49 7.49 0 0 1-5.51-12.57l0 0a7.5 7.5 0 0 1 11.16 10l-.18.2A7.49 7.49 0 0 1 120.69 73.87zM371.44 55.79a7.48 7.48 0 0 1-4.49-1.5l-.32-.25a7.51 7.51 0 1 1 4.81 1.75zm.31-8l-.38.46zm-228.33 5.5a7.57 7.57 0 1 1 4.82-1.75l-.32.25A7.49 7.49 0 0 1 143.42 53.27zm-.37-8l.37.49zm203-6.67a7.38 7.38 0 0 1-3.58-.93l-.18-.1a7.5 7.5 0 1 1 7.39-13l-3.7 6.53 3.72-6.52A7.51 7.51 0 0 1 346 38.61zM169.24 36.67a7.57 7.57 0 1 1 3.78-1l-.35.18A7.45 7.45 0 0 1 169.24 36.67zm-.31-8.07l.3.57zm149.19-2.76a7.59 7.59 0 0 1-2.38-.38l-.28-.11a7.49 7.49 0 1 1 2.66.49zm.43-9L318 18.31zM197.42 24.55a7.5 7.5 0 0 1-2.37-14.62l.09 0a7.5 7.5 0 0 1 4.75 14.23l-.1 0A7.53 7.53 0 0 1 197.42 24.55zm91.06-6.66a6.81 6.81 0 0 1-1.27-.11l-.14 0A7.5 7.5 0 0 1 289.68 3h.06a7.5 7.5 0 0 1-1.26 14.89zm-61.27-.63a7.5 7.5 0 0 1-1.08-14.92l1.09 7.42-1.08-7.42a7.5 7.5 0 1 1 2.45 14.79l-.28.05A8.14 8.14 0 0 1 227.21 17.26zM257.93 15h-.13a7.5 7.5 0 0 1 0-15h.31a7.5 7.5 0 0 1-.21 15zM439.68 222.08a5.92 5.92 0 0 1-.84-.05 7.51 7.51 0 1 1 8.3-6.66v0A7.51 7.51 0 0 1 439.68 222.08zM256.84 385a7.5 7.5 0 0 1-.22-15H257a7.5 7.5 0 0 1 0 15zm.11-6.47v0zm-29.58 4.22a7.28 7.28 0 0 1-1.14-.08l-.27-.05a7.55 7.55 0 1 1 1.41.13zm59-.28a7.59 7.59 0 1 1 1.45-.14l-.35.06A8.14 8.14 0 0 1 286.41 382.47zm-87.91-6.73a7.51 7.51 0 1 1 2.14-14.69l.29.1a7.5 7.5 0 0 1-2.43 14.59zm-.39-6.38l0 .1.42-1.22zm117.11 5.83a7.5 7.5 0 0 1-2.53-14.56l.16-.06a7.5 7.5 0 0 1 4.88 14.19l-2.44-7.1 2.41 7.11A7.69 7.69 0 0 1 315.22 375.19zm-144.07-11a7.4 7.4 0 0 1-3.51-.88 7.5 7.5 0 0 1 6.78-13.38l.27.14a7.51 7.51 0 0 1-3.54 14.12zm-.65-6.27l-.07.13.73-1.36zm171.94 5.5a7.54 7.54 0 1 1 3.61-.93l-.17.09A7.46 7.46 0 0 1 342.44 363.39zM146 348.35a7.37 7.37 0 0 1-4.41-1.47l-.08-.06a7.44 7.44 0 1 1 4.49 1.53zm221.48-1a7.5 7.5 0 0 1-4.72-13.34l.33-.25a7.5 7.5 0 1 1 4.39 13.59zm.36-7.17h0l-.3-.4zM123.67 328.78a7.44 7.44 0 0 1-5.28-2.19l-.09-.09a7.5 7.5 0 0 1 10.63-10.59l.09.1a7.51 7.51 0 0 1-5.35 12.77zm265.94-1.13a7.53 7.53 0 1 1 5.48-2.38l-.07.07A7.45 7.45 0 0 1 389.61 327.65zM104.72 306a7.49 7.49 0 0 1-6.13-3.18v0a7.5 7.5 0 0 1 12.12-8.84c0 .06.12.18.17.24a7.51 7.51 0 0 1-6.15 11.8zm303.65-1.31a7.56 7.56 0 1 1 6.26-3.37c-.05.09-.17.25-.23.34A7.5 7.5 0 0 1 408.37 304.64zM78.77 252.81a7.49 7.49 0 0 1-7.15-5.26l-.11-.36a7.5 7.5 0 1 1 9.5 5.27A7.32 7.32 0 0 1 78.77 252.81zm355-1.62a7.55 7.55 0 1 1 7.26-5.62l-.11.36A7.49 7.49 0 0 1 433.77 251.19zM72.54 223.8A7.55 7.55 0 1 1 80 215.11l0 .28a7.5 7.5 0 0 1-6.54 8.35A7.07 7.07 0 0 1 72.54 223.8zm-1.4-7.34l-.15 0 1.56-.19zm0-22.36h-.22a7.45 7.45 0 0 1-7.27-7.67v-.11a7.5 7.5 0 1 1 7.49 7.78zM74.45 164.49a7.32 7.32 0 0 1-1.31-.11 7.5 7.5 0 0 1-6.09-8.69l.1-.46a7.5 7.5 0 1 1 7.3 9.26z"/><circle cx="115.5" cy="268.15" r="22.66" fill="#3c3b41"/><path fill="#57565c" d="M157.45,340c-2.72,23.94-23.89,40.94-45.9,38.93-19.43-1.77-35.84-18-38-38.93q-1.31-5.52-2.6-11.06a45,45,0,0,1,44.82-55.32l1.48,0A45,45,0,0,1,160.05,329Z"/><path fill="#3c3b41" d="M117.21,273.64l-1.48,0a46,46,0,0,0-7.84.51A45,45,0,0,1,145.05,329l-2.6,11c-2.26,19.88-17.24,35-34.86,38.36a39.73,39.73,0,0,0,4,.57c22,2,43.18-15,45.9-38.93l2.6-11A45,45,0,0,0,117.21,273.64Z"/><path fill="#1cabe1" d="M7.5,512V461.05a39.21,39.21,0,0,1,27.77-37.5l19.06-5.82h0L64,414.79l26.37-3.46a19.52,19.52,0,0,0,9.26-6.1c2.91-3.45-10.38-7.89-10.38-12.64v-8.94h52v8.8c0,4.76-13.28,9.22-10.35,12.67a19.58,19.58,0,0,0,9.23,6.07l36,6.41,19.56,6a39.21,39.21,0,0,1,27.78,37.5V512"/><path fill="#199ad5" d="M195.72,423.56l-19.56-6-36-6.41a19.58,19.58,0,0,1-9.23-6.07c-2.93-3.45,10.35-7.91,10.35-12.67v-8.8h-30v8.8a19.6,19.6,0,0,0,13.88,18.74l21,6.41,19.56,6a39.21,39.21,0,0,1,27.78,37.5V512h30V461.06A39.21,39.21,0,0,0,195.72,423.56Z"/><path fill="#fdd8ae" d="M176.16,417.6c-3.38,3.37-25.76,24.93-59.87,22.68C86,438.28,67.72,418.93,64,414.79l11.37-3.46a19.52,19.52,0,0,0,9.26-6.1,18.64,18.64,0,0,0,1.76-2.46,19.47,19.47,0,0,0,2.86-10.18v-8.94h52v8.8A19.53,19.53,0,0,0,145,404c.27.38.57.75.87,1.11a19.58,19.58,0,0,0,9.23,6.07Z"/><path fill="#fbbf7d" d="M145,404c-7,11.16-16.76,20.46-28.49,20.5-12.84.05-23.17-9.87-30.18-21.74a19.47,19.47,0,0,0,2.86-10.18v-8.94h52v8.8A19.53,19.53,0,0,0,145,404Z"/><path fill="#fdd8ae" d="M156,362.15c-3.36,16.85-18.21,47.29-39.46,47.36-22.77.09-37.63-31.17-40.16-49.09-3-21.11,10.54-36,30.46-47.34-.57.32,7.14,7.91,8,8.62,4.93,4.21,11.76,6.67,18.58,7.73,5.76.9,13,1,16.59,5.57C156.17,342.87,157.88,352.73,156,362.15Z"/><path fill="#fbbf7d" d="M150,335c-3.61-4.6-10.83-4.67-16.59-5.57-6.82-1.06-13.65-3.52-18.58-7.73-.83-.71-8.54-8.3-8-8.62a105,105,0,0,0-9.59,6.14c1.24,1.24,2.29,2.24,2.56,2.48,4.93,4.21,11.76,6.67,18.58,7.73,5.76.9,13,1,16.59,5.57,6.19,7.87,7.9,17.73,6,27.15-3,14.87-14.88,40.29-32.22,46.13a24.77,24.77,0,0,0,7.76,1.23c21.25-.07,36.1-30.51,39.46-47.36C157.88,352.73,156.17,342.87,150,335Z"/><path fill="#57565c" d="M435.75,331.34H358.47l-7.15-33c-4.58-21.16,10.18-41.62,30.2-41.51H382c7.33.1,12.3,1.45,20.34,3.22,4.09.9,8.83,1.87,14.17,2.84,17.74,3.22,29.3,22,25.18,41Q438.71,317.65,435.75,331.34Z"/><path fill="#3c3b41" d="M416.5,262.91c-5.34-1-10.08-1.94-14.17-2.84-8-1.77-13-3.12-20.34-3.22h-.47a29.08,29.08,0,0,0-6.38.69c3.74.58,7.43,1.48,12.19,2.53,4.09.9,8.83,1.87,14.17,2.84,17.74,3.22,29.3,22,25.18,41q-3,13.69-5.93,27.38l13.88,5.08c2-9.13,5.08-23.33,7.05-32.46C445.8,285,434.24,266.13,416.5,262.91Z"/><path fill="#eb304a" d="M504.5,461.06V512h-216V461.05a39.21,39.21,0,0,1,27.77-37.5l17-5.19,2.07-.63h0l21-6.4a19.45,19.45,0,0,0,8.88-5.67c.13-.14.26-.28.38-.43,2.91-3.45,19.62-7.89,19.62-12.64.77-6.24-13.47-12.48-12.7-18.73a38.56,38.56,0,0,1,14.54-19.67c4-2.73,14-9.51,23.24-5.5,8.06,3.5,13,14,11.47,25.79.22,7.36-14.6,13.29-14.52,18a20.65,20.65,0,0,0,.57,4.71c.74,3,17.14,5.68,19.08,8l.38.43a19.52,19.52,0,0,0,8.85,5.64l21,6.41,2.08.63,17.48,5.33A39.21,39.21,0,0,1,504.5,461.06Z"/><path fill="#e4222e" d="M476.72,423.56l-17.48-5.33-2.08-.63-21-6.41a19.52,19.52,0,0,1-8.85-5.64c-.13-.14-15.26-.29-15.38-.43a19.61,19.61,0,0,1-4.08-8,20.65,20.65,0,0,1-.57-4.71c-.08-4.68,14.74-10.61,14.52-18,1.49-11.75-3.41-22.29-11.47-25.79-9.25-4-19.21,2.76-23.23,5.49,3.8,5,5.7,12.39,4.7,20.3.22,7.36.4,13.29.48,18a20.65,20.65,0,0,0,.57,4.71,19.61,19.61,0,0,0,4.08,8l.38.43a19.52,19.52,0,0,0,8.85,5.64l21,6.41,2.08.63,17.48,5.33a39.21,39.21,0,0,1,27.78,37.5V512h30V461.06A39.21,39.21,0,0,0,476.72,423.56Z"/><path fill="#fdd8ae" d="M427.28,405.55,396.51,426l-31.29-20.32c.13-.14.26-.28.38-.43a19.58,19.58,0,0,0,4.62-12.64c.16-1.28.32-2.57.47-3.85.61-5,1.22-9.91,1.83-14.88a38.56,38.56,0,0,1,14.54-19.67c4-2.73,14-9.51,23.24-5.5,8.06,3.5,13,14,11.47,25.79.17,5.64.31,10.44.41,14.48,0,1.24.05,2.4.07,3.49a20.65,20.65,0,0,0,.57,4.71,19.61,19.61,0,0,0,4.08,8Z"/><path fill="#fbbf7d" d="M422.18,389c-6.77,8.82-15.78,15.19-25.67,15.19s-19-6.48-25.82-15.41c.61-5,1.22-9.91,1.83-14.88a38.56,38.56,0,0,1,14.54-19.67c4-2.73,14-9.51,23.24-5.5,8.06,3.5,13,14,11.47,25.79C421.94,380.12,422.08,384.92,422.18,389Z"/><path fill="#fdd8ae" d="M434.56,340.64c0,19.73-17,48.51-38.05,48.51s-38-28.78-38-48.51V326.49c-.55-7.52,1.15-12.31,4.43-15.07,6.37-5.35,15,0,22.8-5.49s13.94-7.26,21.91-1.71c8.5,5.91,16.39,1.5,22.52,7.2,2.42,2.26,5,6.47,4.43,15.07Z"/><path fill="#fbbf7d" d="M430.13,311.42c-6.13-5.7-14-1.29-22.52-7.2-6.22-4.33-11.43-4.14-17.06-1.27a21.3,21.3,0,0,1,2.06,1.27c8.5,5.91,16.39,1.5,22.52,7.2,2.42,2.26,5,6.47,4.43,15.07v14.15c0,17.31-13.13,41.6-30.55,47.28a23.91,23.91,0,0,0,7.5,1.23c21,0,38.05-28.78,38.05-48.51V326.49C435.1,317.89,432.55,313.68,430.13,311.42Z"/><path fill="#c0232c" d="M395.8 424l-28.36 22.83a7.25 7.25 0 0 1-10-.87l-24.17-27.63 2.07-.63h0l21-6.4a19.45 19.45 0 0 0 8.88-5.67zM459.24 418.23L434.89 446a7.26 7.26 0 0 1-10 .87L396.51 424l30.77-18.48a19.52 19.52 0 0 0 8.85 5.64l21 6.41z"/><path fill="#c0232c" d="M404,431.43V512H389V431.43a7.5,7.5,0,0,1,15,0Z"/><path fill="#19ac66" d="M442.64 194.39a7.48 7.48 0 0 1-5-1.94L409 166.51A7.5 7.5 0 0 1 419 155.39l22.3 20.2 16.5-23.89a7.5 7.5 0 0 1 12.35 8.52l-21.37 30.93a7.48 7.48 0 0 1-5.3 3.19A8.46 8.46 0 0 1 442.64 194.39zM94 190.49a7.47 7.47 0 0 1-6.26-3.37l-16-24.23L49 182.6a7.5 7.5 0 1 1-9.83-11.33L68.33 146a7.5 7.5 0 0 1 11.18 1.53l20.7 31.38A7.5 7.5 0 0 1 94 190.49z"/><path fill="#fed947" d="M256,296.5a105,105,0,1,1,74.25-30.76A104.34,104.34,0,0,1,256,296.5Z"/><path fill="#fecc30" d="M330.25,117.25A104.33,104.33,0,0,0,256,86.5a106.68,106.68,0,0,0-15,1.06,105,105,0,0,1,0,207.87,106.68,106.68,0,0,0,15,1.07,105,105,0,0,0,74.25-179.25Z"/><path fill="#f8be32" d="M256,304a112.5,112.5,0,1,1,79.55-32.95A111.8,111.8,0,0,1,256,304Zm0-210a97.49,97.49,0,1,0,68.94,28.55A96.87,96.87,0,0,0,256,94Z"/><path fill="#fff" d="M244.24,208.36H216.89a7.5,7.5,0,0,1,0-15h27.35a25.57,25.57,0,0,0,0-51.14H225.16a7.5,7.5,0,0,1,0-15h19.08a40.57,40.57,0,0,1,0,81.14Z"/><path fill="#fff" d="M295.11 142.22H216.89a7.5 7.5 0 0 1 0-15h78.22a7.5 7.5 0 0 1 0 15zM295.11 175.29H216.89a7.5 7.5 0 0 1 0-15h78.22a7.5 7.5 0 0 1 0 15zM276 265.59a7.48 7.48 0 0 1-5.21-2.11l-59.15-57.23a7.5 7.5 0 0 1 10.43-10.78l59.15 57.23A7.5 7.5 0 0 1 276 265.59z"/></svg>