<svg xmlns="http://www.w3.org/2000/svg" enable-background="new 0 0 50 50" viewBox="0 0 50 50"><path fill="#444445" d="M49,3v30c0,1.1-0.9,2-2,2H29c-1.1,0-2-0.9-2-2V3c0-1.1,0.9-2,2-2h18C48.1,1,49,1.9,49,3z"/><path fill="#EFEFED" d="M23 17v30c0 1.1-.9 2-2 2H3c-1.1 0-2-.9-2-2V17c0-1.1.9-2 2-2h18C22.1 15 23 15.9 23 17zM47 29.3H28.9c-.3 0-.5-.2-.5-.5V4.9c0-.3.2-.5.5-.5H47c.3 0 .5.2.5.5v23.9C47.5 29.1 47.3 29.3 47 29.3z"/><rect width="22" height="24.8" x="1" y="18.6" fill="#444445"/><path fill="#696967" d="M39.8,32.2c0,1-0.8,1.8-1.8,1.8s-1.8-0.8-1.8-1.8c0-1,0.8-1.8,1.8-1.8S39.8,31.2,39.8,32.2z"/><path fill="#C7C7C7" d="M13.8,46.1c0,1-0.8,1.8-1.8,1.8s-1.8-0.8-1.8-1.8s0.8-1.8,1.8-1.8S13.8,45.2,13.8,46.1z"/><path fill="#696967" d="M41,2.7c0,0.3-0.2,0.5-0.5,0.5h-5C35.2,3.2,35,3,35,2.7c0-0.3,0.2-0.5,0.5-0.5h5C40.8,2.2,41,2.4,41,2.7z"/><path fill="#C7C7C7" d="M15,16.8c0,0.3-0.2,0.5-0.5,0.5h-5c-0.3,0-0.5-0.2-0.5-0.5c0-0.3,0.2-0.5,0.5-0.5h5
			C14.8,16.3,15,16.5,15,16.8z"/><path fill="#74A842" d="M44.4,7.9v18c0,0.5-0.5,1-1,1H32.5c-0.5,0-1-0.5-1-1v-18c0-0.5,0.4-1,1-1h10.9
				C43.9,6.9,44.4,7.3,44.4,7.9z"/><path fill="#83BD57" d="M43,10.4v12.9c-1.2,0-2.1,0.9-2.1,2.1h-5.8c0-1.2-0.9-2.1-2.1-2.1V10.4c1.2,0,2.1-0.9,2.1-2.1h5.8
				C40.9,9.5,41.8,10.4,43,10.4z"/><path fill="#74A842" d="M39 11.4c0 .6-.5 1.1-1.1 1.1-.6 0-1.1-.5-1.1-1.1 0-.6.5-1.1 1.1-1.1C38.6 10.3 39 10.8 39 11.4zM39 22.4c0 .6-.5 1.1-1.1 1.1-.6 0-1.1-.5-1.1-1.1 0-.6.5-1.1 1.1-1.1C38.6 21.3 39 21.8 39 22.4z"/><circle cx="38" cy="16.9" r="3.1" fill="#74A842"/><path fill="#EFEFED" d="M35.8,16.8h0.4c0-0.5,0.2-0.9,0.6-1.3l0.5,0.4c-0.3,0.3-0.4,0.6-0.5,0.9h1c0.1-0.4,0.2-0.7,0.4-0.9
				c0.2-0.2,0.4-0.3,0.7-0.3c0.3,0,0.6,0.1,0.8,0.3c0.2,0.2,0.3,0.5,0.3,0.8h0.3v0.3h-0.3c0,0.4-0.2,0.8-0.4,1.1L39,17.9
				c0.2-0.2,0.3-0.5,0.3-0.8h-1v0c-0.1,0.4-0.2,0.7-0.4,0.9c-0.2,0.2-0.4,0.3-0.7,0.3c-0.3,0-0.6-0.1-0.8-0.3
				c-0.2-0.2-0.3-0.5-0.3-0.9h-0.4V16.8z M39.2,16.4c-0.1-0.1-0.2-0.1-0.3-0.1c-0.1,0-0.2,0-0.3,0.1c-0.1,0.1-0.1,0.2-0.2,0.4h0.9
				C39.3,16.6,39.3,16.5,39.2,16.4z M36.9,17.5c0.1,0.1,0.2,0.1,0.3,0.1c0.1,0,0.2,0,0.3-0.1c0.1-0.1,0.1-0.2,0.2-0.4h-1
				C36.7,17.3,36.8,17.4,36.9,17.5z"/><path fill="#696967" d="M18.2 6.3c-1.8-.2-4.5.2-7.6 3.3l.8.8c.3.3.1 1-.3 1l-5 .6c-.4.1-.7-.3-.7-.7l.6-5c.1-.5.7-.7 1-.3l.7.7c0 0 4.1-5.3 10.7-1.2C18.8 5.8 18.6 6.3 18.2 6.3zM43.9 38l-5 .6c-.5.1-.7.7-.3 1l.8.8c-3.1 3.1-5.9 3.5-7.6 3.3-.4 0-.6.5-.2.7 6.6 4.1 10.7-1.2 10.7-1.2l.7.7c.3.3 1 .1 1-.3l.6-5C44.6 38.3 44.3 38 43.9 38z"/><ellipse cx="11" cy="33.9" fill="#FFCA67" rx="6.9" ry="1.6"/><path fill="none" d="M4.1,33.9c0,0.9,3.1,1.6,6.9,1.6c3.8,0,6.9-0.7,6.9-1.6"/><path fill="#F5B948" d="M11,35.5c-3.8,0-6.9-0.7-6.9-1.6v1.6c0,0.9,3.1,1.6,6.9,1.6c3.8,0,6.9-0.7,6.9-1.6v-1.6
					C17.9,34.8,14.8,35.5,11,35.5z"/><ellipse cx="13" cy="31.6" fill="#FFCA67" rx="6.9" ry="1.6"/><path fill="none" d="M6.1,31.6c0,0.9,3.1,1.6,6.9,1.6s6.9-0.7,6.9-1.6"/><path fill="#F5B948" d="M13,33.1c-3.8,0-6.9-0.7-6.9-1.6v1.6c0,0.9,3.1,1.6,6.9,1.6s6.9-0.7,6.9-1.6v-1.6
					C19.9,32.4,16.8,33.1,13,33.1z"/><ellipse cx="11" cy="29.2" fill="#FFCA67" rx="6.9" ry="1.6"/><path fill="none" d="M4.1,29.2c0,0.9,3.1,1.6,6.9,1.6c3.8,0,6.9-0.7,6.9-1.6"/><path fill="#F5B948" d="M11,30.7c-3.8,0-6.9-0.7-6.9-1.6v1.6c0,0.9,3.1,1.6,6.9,1.6c3.8,0,6.9-0.7,6.9-1.6v-1.6
					C17.9,30,14.8,30.7,11,30.7z"/><ellipse cx="13" cy="26.6" fill="#FFCA67" rx="6.9" ry="1.6"/><path fill="#F5B948" d="M18.2,26.6c0,0.5-2.3,0.9-5.2,0.9c-2.9,0-5.2-0.4-5.2-0.9c0-0.5,2.3-0.9,5.2-0.9
				C15.9,25.7,18.2,26.1,18.2,26.6z"/><path fill="none" d="M6.1,26.6c0,0.9,3.1,1.6,6.9,1.6s6.9-0.7,6.9-1.6"/><path fill="#F5B948" d="M13,28.2c-3.8,0-6.9-0.7-6.9-1.6v1.6c0,0.9,3.1,1.6,6.9,1.6s6.9-0.7,6.9-1.6v-1.6
				C19.9,27.5,16.8,28.2,13,28.2z"/></svg>