<svg xmlns="http://www.w3.org/2000/svg" data-name="Layer 1" viewBox="0 0 64 64"><rect width="40" height="22" x="31" y="31" fill="#ffe773" transform="rotate(90 51 42)"/><path fill="#0ead69" d="M48,62c0-3.32-3.58-6-8-6v6Z"/><path fill="#0ead69" d="M48 62c0-3.32-3.58-6-8-6v6zM54 62c0-3.32 3.58-6 8-6v6z"/><path fill="#0ead69" d="M54 62c0-3.32 3.58-6 8-6v6zM54 22c0 3.32 3.58 6 8 6V22z"/><path fill="#0ead69" d="M54 22c0 3.32 3.58 6 8 6V22zM48 22c0 3.32-3.58 6-8 6V22z"/><rect width="20" height="40" x="2" y="2" fill="#424752" rx="5"/><rect width="20" height="28" x="2" y="8" fill="#497da6"/><path fill="#8c791c" d="M52,41V38c1.08,0,2,.69,2,1.5h2A3.78,3.78,0,0,0,52,36V34H50v2a3.78,3.78,0,0,0-4,3.5A3.78,3.78,0,0,0,50,43v3c-1.08,0-2-.69-2-1.5H46A3.78,3.78,0,0,0,50,48v2h2V48a3.78,3.78,0,0,0,4-3.5A3.78,3.78,0,0,0,52,41Zm-4-1.5c0-.81.92-1.5,2-1.5v3C48.92,41,48,40.31,48,39.5ZM52,46V43c1.08,0,2,.69,2,1.5S53.08,46,52,46Z"/><rect width="8" height="2" x="8" y="5" fill="#faf3dd"/><rect width="2" height="2" x="11" y="38" fill="#faf3dd"/><path fill="#ffe773" d="M13,21V17a2,2,0,0,1,2,2h2a4,4,0,0,0-4-4V13H11v2a4,4,0,0,0,0,8v4a2,2,0,0,1-2-2H7a4,4,0,0,0,4,4v2h2V29a4,4,0,0,0,0-8ZM9,19a2,2,0,0,1,2-2v4A2,2,0,0,1,9,19Zm4,8V23a2,2,0,0,1,0,4Z"/><path fill="#424752" d="M13 56V53h2a1 1 0 0 0 .89-1.45l-3-6a1 1 0 0 0-1.78 0l-3 6A1 1 0 0 0 9 53h2v3a5 5 0 0 0 5 5H35V59H16A3 3 0 0 1 13 56zM54.85 11.47A1 1 0 0 0 54 11H52V8a5 5 0 0 0-5-5H28V5H47a3 3 0 0 1 3 3v3H48a1 1 0 0 0-.89 1.45l3 6a1 1 0 0 0 1.78 0l3-6A1 1 0 0 0 54.85 11.47z"/></svg>