<svg xmlns="http://www.w3.org/2000/svg" width="48" height="48" viewBox="0 0 48 48"><g transform="translate(0 -1004.362)"><path d="m 37.773438,1050.8613 c 1.83579,0 3.33789,-1.5002 3.33789,-3.3359 l 0,-18.9727 c 0,-1.8357 -1.502135,-3.3359 -3.33789,-3.3359 l -27.546876,0 c -1.8357547,0 -3.3378901,1.5002 -3.3378901,3.3359 l 0,18.9727 c 0,1.8357 1.5021005,3.3359 3.3378901,3.3359 l 27.546876,0 z m 0,-1.5 -27.546876,0 c -1.0306912,0 -1.8378901,-0.8052 -1.8378901,-1.8359 l 0,-18.9727 c 0,-1.0306 0.807164,-1.8359 1.8378901,-1.8359 l 27.546876,0 c 1.030726,0 1.83789,0.8053 1.83789,1.8359 l 0,18.9727 c 0,1.0307 -0.807199,1.8359 -1.83789,1.8359 z" style="line-height:normal;text-indent:0;text-align:start;text-decoration-line:none;text-decoration-style:solid;text-decoration-color:#000;text-transform:none;block-progression:tb;white-space:normal;isolation:auto;mix-blend-mode:normal;solid-color:#000;solid-opacity:1" fill="#343433" color="#000" enable-background="accumulate" font-family="sans-serif" font-weight="400" overflow="visible"/><path d="M23.470703 1005.8613a.75007494.75007494 0 00-.259765.053c-6.26997.1461-11.312499 5.2092-11.3125 11.5097l0 8.0586a.75007494.75007494 0 101.5 0l0-8.0586c0-5.5869 4.478779-10.0625 10.072265-10.0625l1.058594 0c5.593488 0 10.072266 4.4756 10.072265 10.0625l0 8.3223a.75007494.75007494 0 101.5 0l0-8.3223c0-6.3927-5.174491-11.5625-11.572265-11.5625l-1.058594 0zm.164063 2.9278c-4.530714 0-8.207032 3.6432-8.207032 8.1464l0 8.752a.75007494.75007494 0 101.5 0l0-8.752c0-3.6915 2.974717-6.6464 6.707032-6.6464l.730468 0c3.732316 0 6.707032 2.9549 6.707032 6.6464l0 8.7911a.75007494.75007494 0 101.5 0l0-8.7911c0-4.5032-3.676317-8.1464-8.207032-8.1464l-.71875 0-.01172 0zM24 1031.7246c-1.964091-.0001-3.572373 1.6082-3.572266 3.5723.000414 1.1099.592839 2.0741 1.453125 2.7441l0 4.1934c0 1.1609.956917 2.1211 2.119141 2.1211 1.162224 0 2.119141-.9602 2.119141-2.1211l0-4.1953c.859424-.6696 1.451965-1.6333 1.453125-2.7422.000107-1.9641-1.608175-3.5724-3.572266-3.5723zm0 1.5c1.153379 0 2.072329.9189 2.072266 2.0723-.0015.7527-.408056 1.4434-1.066407 1.8086a.750075.750075 0 00-.386718.6562l0 4.4727c0 .357-.263383.6211-.619141.6211-.355758 0-.619141-.2641-.619141-.6211l0-4.4707a.750075.750075 0 00-.386718-.6563c-.658792-.3654-1.065424-1.0573-1.066407-1.8105-.000063-1.1534.918887-2.0723 2.072266-2.0723z" style="line-height:normal;text-indent:0;text-align:start;text-decoration-line:none;text-decoration-style:solid;text-decoration-color:#000;text-transform:none;block-progression:tb;white-space:normal;isolation:auto;mix-blend-mode:normal;solid-color:#000;solid-opacity:1" fill="#343433" color="#000" enable-background="accumulate" font-family="sans-serif" font-weight="400" overflow="visible"/></g></svg>