<svg xmlns="http://www.w3.org/2000/svg" data-name="Layer 1" viewBox="0 0 64 64"><path fill="#e3fcfd" d="M48.57548,55.68717,40.33661,47.4483a3,3,0,0,0-4.35164.11491l-3.176,3.53048A32.20332,32.20332,0,0,1,13.0646,31.34937l3.53048-3.17606a3,3,0,0,0,.1149-4.35163L8.49579,15.60749a.94309.94309,0,0,0-1.38473.04733l-.08273.09614a19.9784,19.9784,0,0,0-.88268,25.11511A91.24388,91.24388,0,0,0,23.29351,57.97454a20.00821,20.00821,0,0,0,25.14186-.86872l.09466-.08145A.9106.9106,0,0,0,48.57548,55.68717Z"/><path fill="#42eaf5" d="M59,2H33a3,3,0,0,0-3,3V34a3,3,0,0,0,3,3h7l6,7,6-7h7a3,3,0,0,0,3-3V5A3,3,0,0,0,59,2Z"/><path fill="#007da1" d="M41.69921,46.04928a5.05463,5.05463,0,0,0-7.26883.19154L32.17318,48.744A29.97334,29.97334,0,0,1,15.31765,31.92145l2.50777-2.25125a5.02736,5.02736,0,0,0,.19178-7.2549L9.78234,14.19621a2.975,2.975,0,0,0-4.32155.15684A22.02385,22.02385,0,0,0,4.41833,42.09481a93.18537,93.18537,0,0,0,17.56518,17.4903,22.169,22.169,0,0,0,27.72354-.94368,2.9313,2.9313,0,0,0,.24961-4.35011ZM24.41494,56.40337A89.22178,89.22178,0,0,1,7.60345,39.66528a17.99157,17.99157,0,0,1,.16934-21.816l7.40978,7.39557a.95763.95763,0,0,1-.03915,1.45069L11.60493,29.8729a1.99761,1.99761,0,0,0-.53934,2.18141A34.065,34.065,0,0,0,32.04006,52.98766a2.00482,2.00482,0,0,0,2.18574-.53827L37.41093,48.917a.96607.96607,0,0,1,1.45357-.0381l7.40782,7.39361A18.12762,18.12762,0,0,1,24.41494,56.40337Z"/><path fill="#007da1" d="M58.98837,0H32.92787a5.01257,5.01257,0,0,0-5.01164,5.00169V34.01151a5.01257,5.01257,0,0,0,5.01164,5.00169h6.09422L44.436,45.3171a2.02091,2.02091,0,0,0,3.04417,0l5.41394-6.30386h6.09423A5.01256,5.01256,0,0,0,64,34.01151V5.00169A5.01256,5.01256,0,0,0,58.98837,0Zm1.00232,34.01151a1.00232,1.00232,0,0,1-1.00232,1.00034H51.97208a2.00733,2.00733,0,0,0-1.52209.69848l-4.49187,5.23028-4.49188-5.23028a2.00731,2.00731,0,0,0-1.52209-.69848H32.92787a1.00232,1.00232,0,0,1-1.00233-1.00034V5.00169a1.00233,1.00233,0,0,1,1.00233-1.00034h26.0605a1.00232,1.00232,0,0,1,1.00232,1.00034Z"/><path fill="#007da1" d="M44.95579 15.00508h6.014a2.00084 2.00084 0 0 0-.00009-4.00135H47.96277V10.00339a2.00466 2.00466 0 0 0-4.00931 0v1.0907a5.99767 5.99767 0 0 0 1.00233 11.9137h2.00465a2.00068 2.00068 0 1 1 0 4.00135h-6.014a2.00068 2.00068 0 1 0 0 4.00136h3.007v1.00033a2.00466 2.00466 0 0 0 4.00931 0v-1.0907c7.17158-1.35713 6.3505-11.74331-1.00245-11.9137H44.95579A2.00084 2.00084 0 0 1 44.95579 15.00508zM21.90227 7.00237a2.00084 2.00084 0 0 0 .00009 4.00135A2.00084 2.00084 0 0 0 21.90227 7.00237zM21.90227 15.00508a2.00084 2.00084 0 0 0 .00009 4.00135A2.00084 2.00084 0 0 0 21.90227 15.00508z"/></svg>