<svg xmlns="http://www.w3.org/2000/svg" data-name="Layer 1" viewBox="0 0 24 24"><path d="M23.85,17.6l-2.76-2.75a.5.5,0,0,0-.7,0,.51.51,0,0,0-.09.13l-.13-.12a.47.47,0,0,0-.54-.11.5.5,0,0,0-.31.46v1.33h-1.5A7.29,7.29,0,0,0,19.4,12,7.4,7.4,0,0,0,12,4.63l-.37,0-.09,0H3.76V3.3a.5.5,0,0,0-.31-.46A.48.48,0,0,0,2.91,3L.15,5.7a.48.48,0,0,0,0,.7L2.91,9.14a.47.47,0,0,0,.35.15.43.43,0,0,0,.19,0,.5.5,0,0,0,.31-.46V7.46h1.5A7.29,7.29,0,0,0,3.68,12a.5.5,0,0,0,1,0,6.39,6.39,0,0,1,6.4-6.37l.43,0,.61.07h0c.2,0,.39.07.59.12h0c.19.06.38.11.56.18h0l.53.22,0,0c.17.08.33.17.49.26l0,0c.16.1.32.2.47.31l0,0,.44.35,0,0c.14.13.27.25.4.39l0,0c.12.13.24.27.35.41l0,0a4.37,4.37,0,0,1,.31.44l0,0c.09.15.18.3.26.46l0,.08c.07.15.15.3.21.45a.56.56,0,0,1,0,.12c.06.15.11.29.16.44s0,.13.05.19.07.27.1.4,0,.2,0,.3a2.87,2.87,0,0,1,.05.31q0,.32,0,.63t0,.63a2.87,2.87,0,0,1-.05.31c0,.1,0,.2,0,.3s-.07.27-.1.4,0,.12-.05.19-.1.29-.16.44a.56.56,0,0,1,0,.12c-.06.15-.14.3-.21.45l0,.08c-.08.16-.17.31-.26.46l0,0a4.37,4.37,0,0,1-.31.44l0,0c-.11.14-.23.28-.35.41l0,0c-.13.14-.26.26-.4.39l0,0-.44.35,0,0c-.15.11-.31.21-.47.31l0,0c-.16.09-.32.18-.49.26l0,0-.53.22h0c-.18.07-.37.12-.56.18h0c-.2.05-.39.09-.59.12h0l-.61.07-.43,0a6.36,6.36,0,0,1-6-4,.51.51,0,0,0-.65-.28.51.51,0,0,0-.28.65,7.37,7.37,0,0,0,6.89,4.67l.36,0,.1,0h7.78V20.7a.5.5,0,0,0,.31.46.43.43,0,0,0,.19,0,.47.47,0,0,0,.35-.15l.13-.12a.34.34,0,0,0,.09.12.48.48,0,0,0,.7,0l2.76-2.74A.51.51,0,0,0,24,18,.47.47,0,0,0,23.85,17.6ZM6.22,6.46h-3a.5.5,0,0,0-.5.5v.63L1.21,6.05,2.76,4.5v.63a.5.5,0,0,0,.5.5H7.38A7.4,7.4,0,0,0,6.22,6.46Zm14.1,13v-.63a.5.5,0,0,0-.5-.5H15.7a7.4,7.4,0,0,0,1.16-.83h3a.5.5,0,0,0,.5-.5v-.63L21.87,18Zm-12-8.87a.5.5,0,0,0,.5.5h3.08a1.35,1.35,0,0,1-1.24.83H8.78a.5.5,0,0,0-.46.31.48.48,0,0,0,.11.54l2.76,2.75a.51.51,0,0,0,.35.15h.92a.5.5,0,0,0,.5-.5.5.5,0,0,0-.5-.5h-.71L10,13h.63a2.34,2.34,0,0,0,2.28-1.83h.48a.5.5,0,0,0,.5-.5.5.5,0,0,0-.5-.5H12.9a2.27,2.27,0,0,0-.37-.84h.85a.5.5,0,0,0,.5-.5.5.5,0,0,0-.5-.5H8.78a.5.5,0,0,0-.5.5.5.5,0,0,0,.5.5h1.84a1.34,1.34,0,0,1,1.24.84H8.78A.5.5,0,0,0,8.28,10.63ZM7.4,12a.46.46,0,1,0-.46.46A.47.47,0,0,0,7.4,12Zm7.82.46a.46.46,0,1,0-.46-.46A.47.47,0,0,0,15.22,12.46Z"/></svg>