<svg xmlns="http://www.w3.org/2000/svg" data-name="Layer 1" viewBox="0 0 512 512"><polyline fill="#24b378" points="231 459.532 89.06 459.532 89.06 504.5 7.5 422.94 89.06 341.379 89.06 386.348 231 386.348"/><polyline fill="#24b378" points="282 125.652 422.94 125.652 422.94 170.621 504.5 89.06 422.94 7.5 422.94 52.468 282 52.468"/><polygon fill="#19ac66" points="422.94 7.5 422.94 37.5 474.5 89.06 422.94 140.621 422.94 170.621 504.5 89.06 422.94 7.5"/><path fill="#fed947" d="M405.49161,310.41061c-5.50061,15.11278-30.46908,19.22044-39.8602,31.24557-9.73325,12.46322-7.827,37.59556-20.67048,46.24363-12.97187,8.7345-35.602-2.51154-50.63117,1.811-14.88023,4.27974-28.081,25.87316-43.88459,25.31812-15.24849-.53555-26.90237-22.8305-42.01537-28.33119-15.11277-5.50062-38.37088,4.08748-50.396-5.30364-12.46322-9.73325-8.69583-34.76026-17.34389-47.60375-8.73451-12.97188-33.299-18.9033-37.62157-33.93249-4.27973-14.88022,13.33534-32.90718,13.89038-48.71072.53554-15.2485-15.951-34.44478-10.45033-49.55778,5.50061-15.11278,30.46908-19.22044,39.8602-31.24557,9.73325-12.46322,7.827-37.59556,20.67048-46.24363,12.97187-8.7345,35.602,2.51154,50.63117-1.811,14.88023-4.27974,28.081-25.87316,43.88459-25.31812,15.24849.53555,26.90237,22.8305,42.01537,28.33119,15.11278,5.50062,38.37088-4.08748,50.396,5.30364,12.46322,9.73325,8.69583,34.76026,17.34389,47.60375,8.73451,12.97188,33.299,18.9033,37.62157,33.93249,4.27973,14.88022-13.33534,32.90718-13.89038,48.71072C394.50574,276.10133,410.99231,295.29761,405.49161,310.41061Z"/><path fill="#fed947" d="M405.49161,310.41061c-5.50061,15.11278-30.46908,19.22044-39.8602,31.24557-9.73325,12.46322-7.827,37.59556-20.67048,46.24363-12.97187,8.7345-35.602-2.51154-50.63117,1.811-14.88023,4.27974-28.081,25.87316-43.88459,25.31812-15.24849-.53555-26.90237-22.8305-42.01537-28.33119-15.11277-5.50062-38.37088,4.08748-50.396-5.30364-12.46322-9.73325-8.69583-34.76026-17.34389-47.60375-8.73451-12.97188-33.299-18.9033-37.62157-33.93249-4.27973-14.88022,13.33534-32.90718,13.89038-48.71072.53554-15.2485-15.951-34.44478-10.45033-49.55778,5.50061-15.11278,30.46908-19.22044,39.8602-31.24557,9.73325-12.46322,7.827-37.59556,20.67048-46.24363,12.97187-8.7345,35.602,2.51154,50.63117-1.811,14.88023-4.27974,28.081-25.87316,43.88459-25.31812,15.24849.53555,26.90237,22.8305,42.01537,28.33119,15.11278,5.50062,38.37088-4.08748,50.396,5.30364,12.46322,9.73325,8.69583,34.76026,17.34389,47.60375,8.73451,12.97188,33.299,18.9033,37.62157,33.93249,4.27973,14.88022-13.33534,32.90718-13.89038,48.71072C394.50574,276.10133,410.99231,295.29761,405.49161,310.41061Z"/><path fill="#fecc30" d="M165.73834 384.86993a42.34214 42.34214 0 0 0 9.34082.87714A44.77018 44.77018 0 0 0 165.73834 384.86993zM273.57037 125.30225c9.50245 3.45868 22.22413.95385 33.3501.95062a25.89968 25.89968 0 0 1-3.3501-.95062c-15.11328-5.50074-26.76709-27.79566-42.01562-28.33124-5.62793-.19763-10.92481 2.41913-16.08594 6.05688C254.70807 110.185 263.34869 121.58179 273.57037 125.30225zM187.67 122.28912a23.4584 23.4584 0 0 0 2.57032-.91632c-7.4668-.91192-14.689-1.30487-20.48926 1.24585C176.16315 123.40265 182.38678 123.80872 187.67 122.28912zM264.32965 389.71082c-9.58105 2.75567-18.46679 12.68383-27.79834 19.26129 4.4209 3.42474 8.97852 5.88348 13.91406 6.05682 14.8877.52289 27.46582-18.60461 41.31446-24.40179C282.18512 389.45782 272.21246 387.44366 264.32965 389.71082zM395.04108 260.85284c.55517-15.80358 18.17041-33.8305 13.89062-48.71075-4.32275-15.02917-28.8872-20.96063-37.62158-33.9325-8.64795-12.8435-4.88086-37.87048-17.34375-47.60376-8.98975-7.02032-24.25537-3.43573-37.70459-3.47576a19.2406 19.2406 0 0 1 7.70459 3.47576c12.46289 9.73328 8.6958 34.76026 17.34375 47.60376 8.73438 12.97187 33.29883 18.90333 37.62158 33.9325 4.27979 14.88025-13.33545 32.90717-13.89062 48.71075-.53516 15.24848 15.95117 34.44477 10.45068 49.55774-5.50049 15.1128-30.46924 19.22046-39.86035 31.24561-9.7334 12.46319-7.82715 37.59552-20.67041 46.24359a17.32111 17.32111 0 0 1-2.71191 1.48151c11.82812 1.44622 24.30029 4.18243 32.71191-1.48151 12.84326-8.64807 10.937-33.7804 20.67041-46.24359 9.39111-12.02515 34.35986-16.13281 39.86035-31.24561C410.99225 295.29761 394.50592 276.10132 395.04108 260.85284z"/><circle cx="256" cy="256" r="105" fill="#eb304a"/><circle cx="256" cy="256" r="105" fill="#eb304a"/><path fill="#e4222e" d="M256.00006,151a105.40418,105.40418,0,0,0-15,1.07605,105.001,105.001,0,0,1,0,207.8479,105.00042,105.00042,0,1,0,15-208.92395Z"/><path fill="#3c3b41" d="M226.88867,252.03339a25.14453,25.14453,0,1,0-17.77978-7.36425A24.97782,24.97782,0,0,0,226.88867,252.03339ZM219.71533,219.716a10.14411,10.14411,0,0,1,14.34619,14.3457l-.00048.001A10.14429,10.14429,0,0,1,219.71533,219.716ZM256,143.50019a112.5,112.5,0,1,0,112.5,112.5A112.6271,112.6271,0,0,0,256,143.50019Zm0,210a97.5,97.5,0,1,1,97.5-97.5A97.61038,97.61038,0,0,1,256,353.50019ZM509.80371,83.75605,428.24414,2.19648a7.50069,7.50069,0,0,0-12.80371,5.30371V44.96992H288.11035a7.5,7.5,0,0,0,0,15H422.94043a7.49943,7.49943,0,0,0,7.5-7.5V25.60664l63.45313,63.45312-63.45313,63.4541V125.65058a7.49943,7.49943,0,0,0-7.5-7.5H305.8772c-5.15405-1.97949-10.57581-7.14477-15.82251-12.15039-8.31055-7.92773-16.9043-16.126-28.23731-16.52441-11.77929-.44629-21.542,7.71875-30.13964,14.89453-5.4712,4.56543-11.12842,9.28711-16.08008,10.71094-5.06153,1.457-12.44092.45507-19.57764-.51563-11.01807-1.49609-23.50781-3.19141-33.16992,3.31348-9.56543,6.4414-12.54,18.06054-15.4165,29.29785-1.8003,7.03418-3.6626,14.30762-6.97608,18.55078-3.07422,3.93652-9.47266,7.35645-15.66064,10.66309-9.94971,5.31738-21.22705,11.34375-25.33643,22.63378-4.10889,11.29.65576,23.15528,4.85986,33.624,2.61475,6.51074,5.31836,13.24316,5.14258,18.23633-.18847,5.37988-3.4375,12.14843-6.57959,18.69336-5.01953,10.457-10.21045,21.2705-7.023,32.35253,3.21973,11.19434,13.877,17.92286,23.27979,23.85938,6.08984,3.84473,12.38721,7.82031,15.32861,12.18848,2.87793,4.27441,4.17676,11.52832,5.43311,18.542,1.33654,7.46387,2.80175,15.59619,6.49072,22.3291H96.56006V341.38007a7.50041,7.50041,0,0,0-12.80322-5.30371L2.19678,417.63691a7.50079,7.50079,0,0,0,0,10.60742L83.75684,509.8039a7.50041,7.50041,0,0,0,12.80322-5.30371V467.03046H223.89014a7.5,7.5,0,1,0,0-15H89.06006a7.49975,7.49975,0,0,0-7.5,7.5v26.86329L18.10645,422.94062l63.45361-63.4541V386.3498a7.49974,7.49974,0,0,0,7.5,7.5H206.12232c5.15454,1.97949,10.57678,7.14478,15.82348,12.15039,8.31055,7.92871,16.9043,16.126,28.23633,16.52441.29053.01075.57764.01563.86572.01563,11.40918-.001,20.8877-7.91113,29.27442-14.90918,5.4707-4.56641,11.12793-9.28809,16.08105-10.71191,5.0586-1.45606,12.44043-.45411,19.57715.51562,11.01758,1.49512,23.50781,3.19043,33.16895-3.31348,9.5664-6.4414,12.541-18.06054,15.417-29.29882,1.80078-7.03321,3.66308-14.30664,6.97656-18.54981,3.07422-3.9375,9.47266-7.35644,15.66016-10.66308,9.95019-5.31739,21.22656-11.34375,25.33593-22.63379s-.65527-23.15625-4.85937-33.625c-2.61524-6.51075-5.31836-13.24219-5.14356-18.23438.18946-5.37988,3.43848-12.14844,6.58008-18.69433,5.01953-10.457,10.21-21.26954,7.02344-32.35254-3.21973-11.19434-13.877-17.92285-23.2793-23.85938-6.08984-3.84472-12.38672-7.82031-15.3291-12.18945-2.87793-4.27344-4.17676-11.52735-5.43262-18.541-1.33691-7.46386-2.802-15.59619-6.49121-22.3291h49.833v37.46973a7.50058,7.50058,0,0,0,12.80371,5.30371l81.55957-81.56055A7.50139,7.50139,0,0,0,509.80371,83.75605ZM384.85254,198.89375c7.48731,4.72753,15.23047,9.61621,16.87109,15.32226,1.60938,5.59375-2.32519,13.78906-6.12988,21.71484-3.80957,7.93653-7.749,16.14258-8.04785,24.65918-.28711,8.16309,3.01758,16.39258,6.21387,24.35059,3.35742,8.36231,6.83008,17.00781,4.68359,22.9043v.001c-2.14551,5.89649-10.36328,10.28711-18.30957,14.53418-7.56445,4.042-15.38574,8.22168-20.41309,14.66016-5.24511,6.71582-7.502,15.53418-9.68554,24.0625-2.17969,8.51758-4.43457,17.32422-9.26367,20.57617-4.92383,3.31543-13.9961,2.084-22.77247.89258-8.67382-1.17773-17.64257-2.39648-25.74218-.06836-7.99024,2.29785-14.88184,8.04883-21.5459,13.61133-6.85254,5.71973-13.96338,11.62012-20.00195,11.41992-5.63184-.19824-12.12745-6.39453-18.40967-12.38769-6.45117-6.1543-13.12207-12.51856-21.3042-15.4961-.42114-.15332-.84839-.28491-1.27478-.41968-.06043-.02-.12-.04126-.181-.05957a47.18083,47.18083,0,0,0-13.99585-1.80493c-3.60108,0-7.24024.23145-10.8291.46094-8.666.55273-17.62354,1.125-22.06446-2.34375-4.78222-3.73535-6.40966-12.82031-7.98291-21.60645-1.53027-8.54394-3.1123-17.3789-7.75586-24.27636-4.70556-6.98828-12.36035-11.82129-19.76318-16.49414-7.48779-4.72754-15.231-9.61621-16.87207-15.32227-1.6084-5.59375,2.3252-13.78906,6.12988-21.71387,3.80957-7.93652,7.749-16.14355,8.04834-24.65918.28662-8.16406-3.01806-16.39355-6.21435-24.35254-3.35791-8.36132-6.82959-17.00781-4.6836-22.90332,2.146-5.89746,10.36377-10.28808,18.31055-14.53515,7.564-4.042,15.38525-8.22168,20.41309-14.66016,5.24463-6.71582,7.50244-15.53418,9.68554-24.06347,2.18018-8.51661,4.43457-17.32422,9.26319-20.5752,4.92431-3.31641,13.998-2.083,22.773-.89258,8.67578,1.17774,17.6455,2.39649,25.7417.06836,7.99023-2.29785,14.88134-8.04883,21.54541-13.61133,6.73291-5.61816,13.69043-11.4248,19.6831-11.4248.10645,0,.21289.001.31934.00488,5.63183.19824,12.12793,6.39453,18.41015,12.3877,6.45118,6.15429,13.12207,12.51855,21.30371,15.49609,8.18164,2.97656,17.38086,2.39258,26.28125,1.82324,8.66309-.55566,17.6211-1.125,22.06348,2.34375,4.7832,3.73535,6.41016,12.82031,7.9834,21.60645,1.53027,8.54492,3.1123,17.37988,7.75684,24.27636C369.79492,189.38789,377.44922,194.21992,384.85254,198.89375Zm-117.52148,68.4375a25.1451,25.1451,0,1,0,35.56054,0A25.17424,25.17424,0,0,0,267.33106,267.33125Zm24.95312,24.95312a10.13965,10.13965,0,1,1,0-14.3457A10.152,10.152,0,0,1,292.28418,292.28437Zm5.168-88.34375-88.50049,88.501A7.50024,7.50024,0,0,0,219.55811,303.049l88.50146-88.501a7.50058,7.50058,0,0,0-10.60742-10.60742Z"/></svg>